<svg width="1007" height="530" viewBox="0 0 1007 530" fill="none" xmlns="http://www.w3.org/2000/svg">
<mask id="mask0_1694_787" style="mask-type:alpha" maskUnits="userSpaceOnUse" x="0" y="0" width="1007" height="530">
<rect x="0.177734" y="0.184937" width="1005.91" height="529.329" fill="#D9D9D9"/>
</mask>
<g mask="url(#mask0_1694_787)">
<mask id="mask1_1694_787" style="mask-type:alpha" maskUnits="userSpaceOnUse" x="-39" y="-35" width="1170" height="490">
<path d="M1130.79 454.569H-38.0938V-34.0029H1130.79V454.569Z" fill="white"/>
</mask>
<g mask="url(#mask1_1694_787)">
<path d="M429.709 561.425C410.629 537.542 399.797 501.817 397.215 454.25C394.648 406.964 401.557 370.412 417.94 344.593C434.324 318.774 459.309 304.953 492.895 303.132C526.481 301.31 552.816 312.344 571.9 336.233C590.983 360.122 601.808 395.71 604.374 442.996C606.94 490.292 600.035 526.913 583.658 552.859C567.281 578.806 542.305 592.691 508.728 594.516C475.129 596.351 448.789 585.321 429.709 561.425Z" stroke="#007BFF" stroke-width="10" stroke-miterlimit="10"/>
<path d="M163.633 165.535C171.41 165.535 178.178 159.888 179.226 152.175C179.829 147.777 179.484 143.302 178.213 139.05C176.943 134.797 174.776 130.866 171.859 127.521C168.941 124.176 165.342 121.495 161.301 119.657C157.261 117.82 152.874 116.869 148.436 116.869C147.731 116.869 147.035 116.904 146.34 116.948C145.652 108.439 141.694 100.528 135.299 94.8745C128.903 89.221 120.566 86.2646 112.037 86.6258C103.509 86.9869 95.4515 90.6376 89.5566 96.8116C83.6618 102.986 80.3875 111.203 80.4211 119.739C80.4211 120.547 80.4602 121.35 80.519 122.144C75.671 119.441 70.2197 118.004 64.6692 117.966C59.1188 117.928 53.6483 119.29 48.7636 121.926C43.8789 124.562 39.7377 128.387 36.723 133.048C33.7083 137.708 31.9173 143.054 31.5158 148.59L31.4864 148.981C31.3744 151.119 31.6998 153.257 32.4424 155.264C33.1851 157.272 34.3295 159.106 35.8056 160.656C37.2817 162.206 39.0586 163.439 41.0274 164.278C42.9962 165.118 45.1156 165.547 47.256 165.54L163.633 165.535Z" fill="#C5E1FF"/>
<path d="M975.998 241.753C1000.57 241.753 1001.95 204.763 977.388 203.553C976.717 203.519 976.042 203.504 975.361 203.504C971.099 203.499 966.862 204.16 962.804 205.463C961.159 195.488 955.985 186.436 948.225 179.956C940.465 173.476 930.635 170 920.526 170.162C910.417 170.323 900.703 174.111 893.154 180.835C885.604 187.56 880.722 196.772 879.397 206.795C871.137 202.857 861.756 201.946 852.892 204.219C831.402 209.753 835.913 241.728 858.103 241.728L975.998 241.753Z" fill="#C5E1FF"/>
<path d="M761.581 88.0433C786.146 88.0433 787.507 51.068 762.967 49.8779C762.301 49.8437 761.625 49.829 760.944 49.829C756.684 49.8243 752.448 50.4852 748.392 51.7879C746.748 41.8152 741.575 32.7652 733.816 26.2872C726.058 19.8091 716.23 16.3342 706.124 16.4956C696.018 16.6571 686.306 20.4441 678.758 27.1667C671.21 33.8893 666.329 43.0998 665.004 53.12C656.748 49.182 647.37 48.2703 638.509 50.544C617.029 56.078 621.535 88.0384 643.72 88.0384L761.581 88.0433Z" fill="#C5E1FF"/>
<path d="M751.061 155.985C763.956 169.595 767.477 169.697 781.087 156.798C767.477 169.693 767.374 173.214 780.274 186.824C767.384 173.214 763.858 173.111 750.248 186.011C763.858 173.121 763.956 169.595 751.061 155.985Z" fill="#C5E1FF"/>
<path d="M279.977 50.5685C292.867 64.1783 296.393 64.2812 310.003 51.3814C296.393 64.2763 296.29 67.7975 309.19 81.4073C296.295 67.7975 292.774 67.6946 279.164 80.5944C292.774 67.7044 292.867 64.1783 279.977 50.5685Z" fill="#C5E1FF"/>
<path d="M152.372 245.005C165.261 258.614 168.788 258.717 182.397 245.817C168.788 258.712 168.685 262.234 181.584 275.843C168.69 262.234 165.168 262.131 151.559 275.03C165.149 262.136 165.261 258.614 152.372 245.005Z" fill="#C5E1FF"/>
<path d="M4.86179 210.488C17.7517 224.098 21.2778 224.2 34.8877 211.301C21.2778 224.196 21.175 227.717 34.0698 241.327C21.1799 227.717 17.6587 227.614 4.04883 240.514C17.6587 227.619 17.737 224.098 4.86179 210.488Z" fill="#C5E1FF"/>
<path d="M901.45 312.148C914.34 325.758 917.861 325.86 931.471 312.961C917.861 325.851 917.758 329.377 930.658 342.987C917.768 329.377 914.247 329.274 900.637 342.174C914.247 329.279 914.34 325.758 901.45 312.148Z" fill="#C5E1FF"/>
<path d="M437.018 268.439L554.717 233.878C555.242 233.724 555.73 233.469 556.156 233.126C556.582 232.784 556.935 232.361 557.197 231.881C557.459 231.402 557.624 230.876 557.683 230.332C557.741 229.789 557.692 229.24 557.538 228.716L509.5 65.1431C509.188 64.0859 508.469 63.1958 507.501 62.6679C506.533 62.14 505.396 62.0174 504.338 62.3271L423.732 85.9766C422.698 86.2785 421.821 86.968 421.283 87.9013L394.636 134.426C394.358 134.912 394.18 135.45 394.115 136.006C394.049 136.562 394.096 137.126 394.254 137.664L431.827 265.613C431.979 266.141 432.235 266.634 432.579 267.063C432.923 267.491 433.349 267.848 433.832 268.11C434.315 268.373 434.846 268.538 435.392 268.594C435.939 268.65 436.492 268.597 437.018 268.439Z" fill="white"/>
<path d="M437.018 268.439L554.717 233.878C555.242 233.724 555.73 233.469 556.156 233.126C556.582 232.784 556.935 232.361 557.197 231.881C557.459 231.402 557.624 230.876 557.683 230.332C557.741 229.789 557.692 229.24 557.538 228.716L509.5 65.1431C509.188 64.0859 508.469 63.1958 507.501 62.6679C506.533 62.14 505.396 62.0174 504.338 62.3271L423.732 85.9766C422.698 86.2785 421.821 86.968 421.283 87.9013L394.636 134.426C394.358 134.912 394.18 135.45 394.115 136.006C394.049 136.562 394.096 137.126 394.254 137.664L431.827 265.613C431.979 266.141 432.235 266.634 432.579 267.063C432.923 267.491 433.349 267.848 433.832 268.11C434.315 268.373 434.846 268.538 435.392 268.594C435.939 268.65 436.492 268.597 437.018 268.439Z" stroke="#007BFF" stroke-width="8" stroke-linecap="round" stroke-linejoin="round"/>
<path d="M423.181 88.4988L433.035 121.977C433.366 123.107 433.236 124.323 432.674 125.357C432.111 126.391 431.162 127.161 430.033 127.497L395.031 137.933" fill="white"/>
<path d="M423.181 88.4988L433.035 121.977C433.366 123.107 433.236 124.323 432.674 125.357C432.111 126.391 431.162 127.161 430.033 127.497L395.031 137.933" stroke="#007BFF" stroke-width="8" stroke-linecap="round" stroke-linejoin="round"/>
<path d="M446.168 211.772L439.5 213.731C438.981 213.883 438.684 214.427 438.837 214.946L447.07 242.975C447.222 243.494 447.767 243.791 448.286 243.639L454.953 241.68C455.472 241.528 455.77 240.983 455.617 240.464L447.384 212.436C447.231 211.917 446.687 211.619 446.168 211.772Z" fill="#007BFF"/>
<path d="M482.786 211.344L476.114 213.29C475.595 213.442 475.297 213.985 475.448 214.505L481.133 233.997C481.285 234.516 481.829 234.815 482.348 234.663L489.019 232.717C489.539 232.566 489.837 232.022 489.685 231.503L484 212.01C483.849 211.491 483.305 211.193 482.786 211.344Z" fill="#007BFF"/>
<path d="M497.438 196.707L490.77 198.665C490.251 198.818 489.954 199.362 490.106 199.881L498.339 227.91C498.492 228.429 499.036 228.726 499.555 228.573L506.223 226.615C506.742 226.462 507.039 225.918 506.887 225.399L498.653 197.37C498.501 196.851 497.957 196.554 497.438 196.707Z" fill="#007BFF"/>
<path d="M460.748 198.203L454.08 200.161C453.561 200.314 453.264 200.858 453.417 201.377L464.159 237.948C464.312 238.467 464.856 238.765 465.375 238.612L472.043 236.654C472.562 236.501 472.859 235.957 472.707 235.438L461.964 198.867C461.811 198.348 461.267 198.05 460.748 198.203Z" fill="#007BFF"/>
<path d="M421.32 155.348L500.364 132.139" stroke="#007BFF" stroke-width="6" stroke-linecap="round" stroke-linejoin="round"/>
<path d="M425.086 168.169L504.125 144.956" stroke="#007BFF" stroke-width="6" stroke-linecap="round" stroke-linejoin="round"/>
<path d="M428.848 180.986L507.891 157.772" stroke="#007BFF" stroke-width="6" stroke-linecap="round" stroke-linejoin="round"/>
<path d="M597.588 224.289L600.527 218.054C600.659 217.773 600.731 217.468 600.738 217.157C600.745 216.847 600.688 216.538 600.569 216.252C600.45 215.965 600.272 215.706 600.047 215.492C599.822 215.278 599.555 215.113 599.263 215.008L559.873 200.864L558.145 203.979L594.454 225.263C594.72 225.419 595.017 225.518 595.323 225.553C595.63 225.588 595.941 225.558 596.236 225.467C596.531 225.375 596.803 225.223 597.036 225.02C597.269 224.817 597.457 224.568 597.588 224.289Z" fill="#007BFF"/>
<path d="M530.287 223.368C547.914 223.368 562.204 209.079 562.204 191.452C562.204 173.825 547.914 159.535 530.287 159.535C512.66 159.535 498.371 173.825 498.371 191.452C498.371 209.079 512.66 223.368 530.287 223.368Z" fill="#007BFF"/>
<path d="M530.286 216.712C544.237 216.712 555.547 205.403 555.547 191.452C555.547 177.501 544.237 166.191 530.286 166.191C516.335 166.191 505.025 177.501 505.025 191.452C505.025 205.403 516.335 216.712 530.286 216.712Z" fill="white"/>
<path d="M530.287 223.368C547.914 223.368 562.204 209.079 562.204 191.452C562.204 173.825 547.914 159.535 530.287 159.535C512.66 159.535 498.371 173.825 498.371 191.452C498.371 209.079 512.66 223.368 530.287 223.368Z" stroke="#007BFF" stroke-width="8" stroke-linecap="round" stroke-linejoin="round"/>
<path d="M530.439 179.203L530.248 194.787" stroke="#007BFF" stroke-width="8" stroke-linecap="round" stroke-linejoin="round"/>
<circle cx="530.137" cy="203.69" r="1.95895" fill="#007BFF"/>
<path d="M530.135 203.7C530.141 203.7 530.145 203.696 530.145 203.69C530.145 203.685 530.141 203.68 530.135 203.68C530.129 203.68 530.125 203.685 530.125 203.69C530.125 203.696 530.129 203.7 530.135 203.7Z" stroke="#007BFF" stroke-width="8" stroke-linecap="round" stroke-linejoin="round"/>
<path d="M869.294 446.282L837.897 452.59L850.512 515.384L783.286 528.896L770.665 466.087L647.486 490.839L637.691 442.129L712.974 249.848L793.884 233.589L826.236 394.61L857.638 388.312L869.294 446.282ZM741.472 320.777L705.892 418.803L759.024 408.127L741.472 320.777Z" fill="#007BFF"/>
<path d="M351.19 478.791L319.597 473.526L309.068 536.703L241.43 525.439L251.96 462.262L128.031 441.6L136.2 392.592L274.919 239.632L356.323 253.198L329.319 415.203L360.912 420.468L351.19 478.791ZM276.319 316.046L208.246 395.021L261.705 403.93L276.319 316.046Z" fill="#007BFF"/>
</g>
<mask id="mask2_1694_787" style="mask-type:alpha" maskUnits="userSpaceOnUse" x="376" y="259" width="241" height="196">
<rect x="376.268" y="259.092" width="240.266" height="195.481" fill="#D9D9D9"/>
</mask>
<g mask="url(#mask2_1694_787)">
<path d="M429.709 561.425C410.629 537.542 399.797 501.817 397.215 454.25C394.648 406.964 401.557 370.412 417.94 344.593C434.324 318.774 459.309 304.953 492.895 303.132C526.481 301.31 552.816 312.344 571.9 336.233C590.983 360.122 601.808 395.71 604.374 442.996C606.94 490.292 600.035 526.913 583.658 552.859C567.281 578.806 542.305 592.691 508.728 594.516C475.129 596.351 448.789 585.321 429.709 561.425Z" fill="white"/>
<path d="M545.039 526.467C552.454 509.225 555.172 482.332 553.193 445.788C551.195 408.979 545.583 382.533 536.356 366.45C527.129 350.367 513.381 342.827 495.11 343.829C476.826 344.808 463.977 353.86 456.563 370.985C449.148 388.109 446.427 414.939 448.399 451.473C450.381 488.018 455.993 514.464 465.236 530.811C474.479 547.159 488.236 554.831 506.506 553.829C524.783 552.833 537.628 543.713 545.039 526.467Z" fill="#C5E1FF"/>
<path d="M545.039 526.467C552.454 509.225 555.172 482.332 553.193 445.788C551.195 408.979 545.583 382.533 536.356 366.45C527.129 350.367 513.381 342.827 495.11 343.829C476.826 344.808 463.977 353.86 456.563 370.985C449.148 388.109 446.427 414.939 448.399 451.473C450.381 488.018 455.993 514.464 465.236 530.811C474.479 547.159 488.236 554.831 506.506 553.829C524.783 552.833 537.628 543.713 545.039 526.467Z" stroke="#007BFF" stroke-width="10" stroke-miterlimit="10"/>
</g>
<path d="M661.311 450.102H327.334V454.554H661.311V450.102Z" fill="#007BFF"/>
<path d="M885.378 451.234H844.627C844.424 451.234 844.26 451.398 844.26 451.601V454.206C844.26 454.409 844.424 454.574 844.627 454.574H885.378C885.581 454.574 885.746 454.409 885.746 454.206V451.601C885.746 451.398 885.581 451.234 885.378 451.234Z" fill="#007BFF"/>
<path d="M143.673 451.234H102.922C102.719 451.234 102.555 451.398 102.555 451.601V454.206C102.555 454.409 102.719 454.574 102.922 454.574H143.673C143.876 454.574 144.04 454.409 144.04 454.206V451.601C144.04 451.398 143.876 451.234 143.673 451.234Z" fill="#007BFF"/>
<path d="M849.698 520.434H808.702C808.567 520.434 808.457 520.543 808.457 520.678V522.417C808.457 522.552 808.567 522.662 808.702 522.662H849.698C849.833 522.662 849.943 522.552 849.943 522.417V520.678C849.943 520.543 849.833 520.434 849.698 520.434Z" fill="#C4CEFE"/>
<path d="M156.483 523.49H115.487C115.352 523.49 115.242 523.599 115.242 523.734V525.473C115.242 525.608 115.352 525.718 115.487 525.718H156.483C156.618 525.718 156.728 525.608 156.728 525.473V523.734C156.728 523.599 156.618 523.49 156.483 523.49Z" fill="#007BFF"/>
<path d="M269.055 523.49H228.059C227.924 523.49 227.814 523.599 227.814 523.734V525.473C227.814 525.608 227.924 525.718 228.059 525.718H269.055C269.191 525.718 269.3 525.608 269.3 525.473V523.734C269.3 523.599 269.191 523.49 269.055 523.49Z" fill="#007BFF"/>
<path d="M371.51 497.049H330.514C330.379 497.049 330.27 497.158 330.27 497.293V499.032C330.27 499.167 330.379 499.277 330.514 499.277H371.51C371.646 499.277 371.755 499.167 371.755 499.032V497.293C371.755 497.158 371.646 497.049 371.51 497.049Z" fill="#007BFF"/>
<path d="M429.778 526.286H388.782C388.647 526.286 388.537 526.396 388.537 526.531V528.269C388.537 528.405 388.647 528.514 388.782 528.514H429.778C429.913 528.514 430.023 528.405 430.023 528.269V526.531C430.023 526.396 429.913 526.286 429.778 526.286Z" fill="#007BFF"/>
<path d="M573.546 526.286H532.55C532.414 526.286 532.305 526.396 532.305 526.531V528.269C532.305 528.405 532.414 528.514 532.55 528.514H573.546C573.681 528.514 573.79 528.405 573.79 528.269V526.531C573.79 526.396 573.681 526.286 573.546 526.286Z" fill="#007BFF"/>
<path d="M734.385 524.635H693.389C693.254 524.635 693.145 524.745 693.145 524.88V526.619C693.145 526.754 693.254 526.864 693.389 526.864H734.385C734.521 526.864 734.63 526.754 734.63 526.619V524.88C734.63 524.745 734.521 524.635 734.385 524.635Z" fill="#007BFF"/>
<path d="M223.432 492.763H182.436C182.301 492.763 182.191 492.873 182.191 493.008V494.747C182.191 494.882 182.301 494.992 182.436 494.992H223.432C223.568 494.992 223.677 494.882 223.677 494.747V493.008C223.677 492.873 223.568 492.763 223.432 492.763Z" fill="#007BFF"/>
<path d="M509.678 491.681H468.682C468.547 491.681 468.438 491.791 468.438 491.926V493.664C468.438 493.8 468.547 493.909 468.682 493.909H509.678C509.814 493.909 509.923 493.8 509.923 493.664V491.926C509.923 491.791 509.814 491.681 509.678 491.681Z" fill="#007BFF"/>
<path d="M801.327 491.505H760.331C760.196 491.505 760.086 491.614 760.086 491.75V493.488C760.086 493.623 760.196 493.733 760.331 493.733H801.327C801.462 493.733 801.572 493.623 801.572 493.488V491.75C801.572 491.614 801.462 491.505 801.327 491.505Z" fill="#007BFF"/>
<path d="M657.774 481.137H616.778C616.643 481.137 616.533 481.247 616.533 481.382V483.12C616.533 483.256 616.643 483.365 616.778 483.365H657.774C657.909 483.365 658.019 483.256 658.019 483.12V481.382C658.019 481.247 657.909 481.137 657.774 481.137Z" fill="#007BFF"/>
</g>
</svg>
