<svg width="573" height="77" viewBox="0 0 573 77" fill="none" xmlns="http://www.w3.org/2000/svg">
<rect x="1.0426" y="0.802032" width="570.51" height="74.8415" fill="white" stroke="#E0E0E0"/>
<path d="M431.208 47.9728L426.503 43.2679M426.503 43.2679C427.308 42.4631 427.947 41.5076 428.382 40.4561C428.818 39.4046 429.042 38.2776 429.042 37.1395C429.042 36.0013 428.818 34.8743 428.382 33.8228C427.947 32.7713 427.308 31.8158 426.503 31.011C425.699 30.2062 424.743 29.5678 423.692 29.1323C422.64 28.6967 421.513 28.4726 420.375 28.4726C419.237 28.4726 418.11 28.6967 417.058 29.1323C416.007 29.5678 415.051 30.2062 414.247 31.011C412.621 32.6364 411.708 34.8409 411.708 37.1395C411.708 39.4381 412.621 41.6425 414.247 43.2679C415.872 44.8932 418.076 45.8063 420.375 45.8063C422.674 45.8063 424.878 44.8932 426.503 43.2679Z" stroke="#808993" stroke-width="2" stroke-linecap="round" stroke-linejoin="round"/>
<path fill-rule="evenodd" clip-rule="evenodd" d="M393.458 49.7228L393.458 26.7228L394.458 26.7228L394.458 49.7228L393.458 49.7228Z" fill="#808993"/>
<path d="M375.911 46.754C374.364 44.0799 371.981 42.1624 369.199 41.2534C370.575 40.4342 371.644 39.1861 372.242 37.7005C372.84 36.215 372.934 34.5742 372.509 33.0302C372.084 31.4862 371.164 30.1244 369.89 29.1538C368.617 28.1832 367.06 27.6575 365.458 27.6575C363.857 27.6575 362.3 28.1832 361.026 29.1538C359.752 30.1244 358.833 31.4862 358.408 33.0302C357.983 34.5742 358.077 36.215 358.675 37.7005C359.273 39.1861 360.342 40.4342 361.718 41.2534C358.936 42.1614 356.552 44.0789 355.006 46.754C354.949 46.8465 354.911 46.9494 354.895 47.0567C354.879 47.164 354.884 47.2734 354.911 47.3786C354.937 47.4837 354.985 47.5825 355.05 47.669C355.116 47.7556 355.198 47.8281 355.292 47.8824C355.386 47.9366 355.49 47.9715 355.597 47.985C355.705 47.9985 355.814 47.9903 355.919 47.9608C356.023 47.9314 356.12 47.8813 356.205 47.8136C356.29 47.7459 356.36 47.6619 356.412 47.5665C358.326 44.2596 361.708 42.2853 365.458 42.2853C369.209 42.2853 372.591 44.2596 374.504 47.5665C374.556 47.6619 374.627 47.7459 374.711 47.8136C374.796 47.8813 374.894 47.9314 374.998 47.9608C375.102 47.9903 375.212 47.9985 375.319 47.985C375.427 47.9715 375.531 47.9366 375.625 47.8824C375.719 47.8281 375.801 47.7556 375.866 47.669C375.932 47.5825 375.979 47.4837 376.006 47.3786C376.033 47.2734 376.038 47.164 376.022 47.0567C376.005 46.9494 375.968 46.8465 375.911 46.754ZM359.771 34.9728C359.771 33.8479 360.104 32.7483 360.729 31.813C361.354 30.8777 362.243 30.1487 363.282 29.7182C364.321 29.2877 365.465 29.1751 366.568 29.3945C367.671 29.614 368.685 30.1557 369.48 30.9511C370.275 31.7465 370.817 32.7599 371.037 33.8632C371.256 34.9665 371.143 36.11 370.713 37.1493C370.282 38.1885 369.553 39.0768 368.618 39.7017C367.683 40.3267 366.583 40.6603 365.458 40.6603C363.95 40.6587 362.505 40.0589 361.438 38.9927C360.372 37.9264 359.772 36.4807 359.771 34.9728Z" fill="#808993"/>
<path d="M45.8591 27.9041H79.8068V52.0447H45.8591V27.9041Z" fill="#007BFF"/>
<mask id="mask0_1406_5" style="mask-type:alpha" maskUnits="userSpaceOnUse" x="45" y="27" width="35" height="26">
<path d="M45.8591 27.9041H79.8068V52.0447H45.8591V27.9041Z" fill="#007BFF"/>
</mask>
<g mask="url(#mask0_1406_5)">
<path d="M73.3842 53.6096C72.1042 53.6096 71.1656 53.3856 70.5683 52.9377C69.9924 52.4683 69.7044 51.7964 69.7044 50.9218V39.7864H67.1125V38.7945C67.9232 38.7305 68.6805 38.4425 69.3844 37.9306C70.1097 37.4186 70.7603 36.7573 71.3363 35.9467C71.9336 35.1361 72.4242 34.2508 72.8082 33.2908H74.1201V38.7945H77.7999V39.7864H74.1201V50.3778C74.1201 51.3377 74.5254 51.8177 75.3361 51.8177C75.7627 51.8177 76.136 51.6897 76.456 51.4337C76.7973 51.1564 77.1706 50.6871 77.5759 50.0258L78.3439 50.4738C77.7679 51.6471 77.096 52.4683 76.328 52.9377C75.56 53.3856 74.5788 53.6096 73.3842 53.6096Z" fill="white"/>
<path d="M50.4646 52.8736V37.8665C50.4646 36.0533 50.7845 34.4641 51.4245 33.0988C52.0858 31.7122 53.0137 30.635 54.2083 29.867C55.4243 29.0777 56.8428 28.6831 58.4641 28.6831C60.064 28.6831 61.3332 29.0244 62.2718 29.707C63.2105 30.3896 63.6798 31.2109 63.6798 32.1709C63.6798 32.8108 63.4664 33.3335 63.0398 33.7388C62.6345 34.1227 62.1119 34.3147 61.4719 34.3147C60.9599 34.3147 60.5013 34.1654 60.096 33.8668C59.712 33.5681 59.52 33.1095 59.52 32.4908C59.52 32.1282 59.5733 31.8616 59.68 31.6909C59.808 31.5202 59.9253 31.3709 60.032 31.2429C60.1386 31.0936 60.192 30.9123 60.192 30.699C60.192 30.0377 59.5627 29.707 58.3041 29.707C57.7068 29.707 57.1415 29.8243 56.6082 30.059C56.0962 30.2723 55.6802 30.667 55.3603 31.2429C55.0403 31.8189 54.8803 32.6402 54.8803 33.7068V52.8736H50.4646ZM47.9047 53.1936V52.2337H56.8322V53.1936H47.9047ZM57.8561 53.1936V52.2337H66.3036V53.1936H57.8561ZM59.808 52.7136V39.3064H64.2237V52.7136H59.808ZM47.8087 39.7544V38.7945H64.2237V39.7544H47.8087Z" fill="white"/>
</g>
<path d="M41.703 52.0446L26.2183 28.4736H26.0819V50.4949H29.8337V51.5761H20.8293V50.4949H24.5812V25.4821H20.8293V24.4009H30.7887L41.5666 40.4393H41.703V25.4821H38.2923V24.4009H46.6145V25.4821H43.2038V52.0446H41.703Z" fill="#131619"/>
<path d="M444.456 22.6491H551.857V53.7965H444.456V22.6491Z" fill="#007BFF"/>
<path d="M531.783 41.4464H531.714C531.586 41.839 531.343 42.153 530.985 42.3886C530.627 42.6241 530.209 42.7419 529.732 42.7419C528.823 42.7419 528.125 42.4322 527.639 41.8128C527.161 41.1934 526.923 40.3079 526.923 39.1563C526.923 38.0134 527.161 37.1367 527.639 36.526C528.125 35.9065 528.823 35.5968 529.732 35.5968C530.209 35.5968 530.627 35.7146 530.985 35.9502C531.343 36.177 531.586 36.4867 531.714 36.8793H531.783V32.9011H533.546V42.5849H531.783V41.4464ZM530.296 41.3548C530.718 41.3548 531.072 41.2588 531.356 41.0669C531.641 40.8749 531.783 40.6001 531.783 40.2424V38.0701C531.783 37.7386 531.641 37.4725 531.356 37.2719C531.072 37.0712 530.718 36.9709 530.296 36.9709C529.837 36.9709 529.465 37.1192 529.181 37.4158C528.905 37.7037 528.768 38.0919 528.768 38.5805V39.7583C528.768 40.2468 528.905 40.635 529.181 40.9229C529.465 41.2108 529.837 41.3548 530.296 41.3548Z" fill="white"/>
<path d="M522.549 42.7419C522.017 42.7419 521.54 42.659 521.117 42.4933C520.704 42.3188 520.351 42.0789 520.057 41.7735C519.772 41.4595 519.552 41.0843 519.396 40.6481C519.24 40.2032 519.162 39.7059 519.162 39.1563C519.162 38.6154 519.235 38.1268 519.382 37.6906C519.538 37.2544 519.759 36.8837 520.043 36.5783C520.328 36.2642 520.677 36.0243 521.09 35.8586C521.503 35.6841 521.971 35.5968 522.494 35.5968C523.054 35.5968 523.541 35.6884 523.954 35.8717C524.367 36.0549 524.706 36.3035 524.973 36.6176C525.239 36.9316 525.436 37.298 525.565 37.7168C525.702 38.1268 525.771 38.5674 525.771 39.0385V39.5881H520.993V39.7583C520.993 40.2555 521.14 40.6568 521.434 40.9622C521.728 41.2588 522.164 41.4071 522.742 41.4071C523.183 41.4071 523.541 41.3199 523.816 41.1454C524.101 40.9709 524.353 40.7484 524.573 40.478L525.523 41.4856C525.23 41.8782 524.826 42.1879 524.312 42.4148C523.807 42.6329 523.219 42.7419 522.549 42.7419ZM522.522 36.8531C522.054 36.8531 521.682 37.0014 521.406 37.298C521.131 37.5947 520.993 37.9785 520.993 38.4496V38.5543H523.94V38.4365C523.94 37.9654 523.816 37.5859 523.568 37.298C523.33 37.0014 522.981 36.8531 522.522 36.8531Z" fill="white"/>
<path d="M516.792 42.5849C516.186 42.5849 515.723 42.4366 515.401 42.1399C515.089 41.8346 514.933 41.4028 514.933 40.8444V37.0887H513.873V35.7539H514.424C514.69 35.7539 514.869 35.6972 514.961 35.5838C515.062 35.4616 515.112 35.2828 515.112 35.0472V33.8826H516.696V35.7539H518.169V37.0887H516.696V41.2501H518.059V42.5849H516.792Z" fill="white"/>
<path d="M509.088 42.5849V35.7539H510.851V37.1672H510.92C510.966 36.984 511.034 36.8095 511.126 36.6437C511.227 36.4693 511.356 36.3166 511.512 36.1857C511.668 36.0549 511.851 35.9502 512.062 35.8717C512.283 35.7931 512.535 35.7539 512.82 35.7539H513.205V37.3373H512.655C512.058 37.3373 511.608 37.4202 511.305 37.5859C511.002 37.7517 510.851 38.0222 510.851 38.3973V42.5849H509.088Z" fill="white"/>
<path d="M506.684 42.5849C506.299 42.5849 505.991 42.4802 505.762 42.2708C505.541 42.0527 505.404 41.7648 505.349 41.4071H505.266C505.147 41.852 504.903 42.1879 504.536 42.4148C504.169 42.6329 503.715 42.7419 503.173 42.7419C502.439 42.7419 501.874 42.5587 501.479 42.1923C501.085 41.8259 500.887 41.3373 500.887 40.7266C500.887 40.02 501.154 39.4965 501.686 39.1563C502.218 38.8073 502.976 38.6328 503.958 38.6328H505.183V38.1356C505.183 37.7517 505.078 37.4551 504.867 37.2457C504.656 37.0363 504.316 36.9316 503.848 36.9316C503.435 36.9316 503.1 37.0189 502.843 37.1934C502.595 37.3591 502.384 37.5598 502.209 37.7953L501.163 36.9055C501.429 36.5129 501.782 36.1988 502.223 35.9633C502.664 35.719 503.246 35.5968 503.972 35.5968C504.945 35.5968 505.684 35.8062 506.189 36.225C506.693 36.6437 506.946 37.2457 506.946 38.0309V41.2501H507.662V42.5849H506.684ZM503.765 41.5249C504.16 41.5249 504.495 41.442 504.77 41.2763C505.046 41.1105 505.183 40.8662 505.183 40.5434V39.6405H504.054C503.136 39.6405 502.677 39.9197 502.677 40.478V40.7005C502.677 40.9796 502.769 41.189 502.953 41.3286C503.145 41.4595 503.416 41.5249 503.765 41.5249Z" fill="white"/>
<path d="M498.491 42.5849C497.885 42.5849 497.422 42.4366 497.1 42.1399C496.788 41.8346 496.632 41.4028 496.632 40.8444V37.0887H495.572V35.7539H496.123C496.389 35.7539 496.568 35.6972 496.66 35.5838C496.761 35.4616 496.811 35.2828 496.811 35.0472V33.8826H498.395V35.7539H499.868V37.0887H498.395V41.2501H499.758V42.5849H498.491Z" fill="white"/>
<path d="M490.981 42.7419C490.155 42.7419 489.453 42.6023 488.874 42.3231C488.305 42.044 487.814 41.6776 487.401 41.2239L488.626 40.0985C488.957 40.4649 489.324 40.7441 489.728 40.936C490.141 41.1279 490.595 41.2239 491.091 41.2239C491.651 41.2239 492.073 41.1105 492.358 40.8837C492.642 40.6481 492.785 40.334 492.785 39.9415C492.785 39.6361 492.693 39.3875 492.509 39.1955C492.326 39.0036 491.982 38.864 491.477 38.7768L490.568 38.6459C488.649 38.358 487.69 37.4725 487.69 35.9894C487.69 35.5794 487.768 35.2086 487.924 34.8771C488.089 34.5456 488.323 34.2621 488.626 34.0265C488.929 33.7909 489.292 33.6121 489.714 33.49C490.146 33.3591 490.632 33.2937 491.174 33.2937C491.899 33.2937 492.532 33.4071 493.074 33.6339C493.615 33.8607 494.079 34.1966 494.465 34.6416L493.225 35.7539C492.987 35.4747 492.698 35.2479 492.358 35.0734C492.018 34.8989 491.591 34.8117 491.077 34.8117C490.554 34.8117 490.159 34.9076 489.893 35.0996C489.636 35.2828 489.508 35.5445 489.508 35.8847C489.508 36.2337 489.613 36.4911 489.824 36.6568C490.035 36.8226 490.375 36.9447 490.843 37.0232L491.738 37.1803C492.711 37.346 493.427 37.6427 493.886 38.0701C494.354 38.4889 494.589 39.0778 494.589 39.8368C494.589 40.273 494.506 40.6699 494.341 41.0276C494.185 41.3766 493.951 41.6819 493.638 41.9436C493.336 42.1966 492.959 42.3929 492.509 42.5325C492.069 42.6721 491.559 42.7419 490.981 42.7419Z" fill="white"/>
<path d="M481.723 42.5849C481.117 42.5849 480.654 42.4366 480.332 42.1399C480.02 41.8346 479.864 41.4028 479.864 40.8444V37.0887H478.804V35.7539H479.355C479.621 35.7539 479.8 35.6972 479.892 35.5838C479.993 35.4616 480.043 35.2828 480.043 35.0472V33.8826H481.627V35.7539H483.1V37.0887H481.627V41.2501H482.99V42.5849H481.723Z" fill="white"/>
<path d="M474.706 42.7419C474.174 42.7419 473.696 42.659 473.274 42.4933C472.861 42.3188 472.507 42.0789 472.214 41.7735C471.929 41.4595 471.709 41.0843 471.553 40.6481C471.397 40.2032 471.319 39.7059 471.319 39.1563C471.319 38.6154 471.392 38.1268 471.539 37.6906C471.695 37.2544 471.915 36.8837 472.2 36.5783C472.484 36.2642 472.833 36.0243 473.246 35.8586C473.659 35.6841 474.128 35.5968 474.651 35.5968C475.211 35.5968 475.697 35.6884 476.11 35.8717C476.523 36.0549 476.863 36.3035 477.129 36.6176C477.396 36.9316 477.593 37.298 477.721 37.7168C477.859 38.1268 477.928 38.5674 477.928 39.0385V39.5881H473.15V39.7583C473.15 40.2555 473.297 40.6568 473.591 40.9622C473.884 41.2588 474.32 41.4071 474.899 41.4071C475.339 41.4071 475.697 41.3199 475.973 41.1454C476.257 40.9709 476.51 40.7484 476.73 40.478L477.68 41.4856C477.386 41.8782 476.982 42.1879 476.468 42.4148C475.964 42.6329 475.376 42.7419 474.706 42.7419ZM474.678 36.8531C474.21 36.8531 473.838 37.0014 473.563 37.298C473.288 37.5947 473.15 37.9785 473.15 38.4496V38.5543H476.097V38.4365C476.097 37.9654 475.973 37.5859 475.725 37.298C475.486 37.0014 475.137 36.8531 474.678 36.8531Z" fill="white"/>
<path d="M468.235 41.1716H468.18C468.098 41.6165 467.836 41.9916 467.396 42.297C466.964 42.5936 466.386 42.7419 465.661 42.7419C465.091 42.7419 464.564 42.6416 464.077 42.4409C463.6 42.2403 463.182 41.9436 462.824 41.5511C462.475 41.1498 462.2 40.6568 461.998 40.0723C461.796 39.4878 461.695 38.8117 461.695 38.044C461.695 37.2762 461.796 36.6001 461.998 36.0156C462.209 35.4224 462.503 34.9251 462.879 34.5238C463.256 34.1225 463.705 33.8171 464.229 33.6077C464.752 33.3984 465.335 33.2937 465.977 33.2937C466.84 33.2937 467.575 33.4725 468.18 33.8302C468.786 34.1879 469.264 34.7026 469.612 35.3744L468.139 36.1988C467.965 35.8062 467.703 35.4791 467.354 35.2173C467.015 34.9556 466.556 34.8248 465.977 34.8248C465.261 34.8248 464.688 35.0341 464.256 35.4529C463.834 35.8629 463.623 36.4736 463.623 37.285V38.7506C463.623 39.5532 463.838 40.1639 464.27 40.5827C464.701 41.0014 465.28 41.2108 466.005 41.2108C466.289 41.2108 466.556 41.1803 466.803 41.1192C467.051 41.0494 467.267 40.9491 467.451 40.8182C467.634 40.6874 467.781 40.526 467.891 40.334C468.001 40.1421 468.056 39.9153 468.056 39.6536V39.0647H466.17V37.6121H469.805V42.5849H468.235V41.1716Z" fill="white"/>
<path d="M235.944 46.9744L234.684 43.1944H229.464L228.244 46.9744H225.944L230.704 33.0144H233.544L238.304 46.9744H235.944ZM232.124 35.0944H232.024L230.004 41.2544H234.124L232.124 35.0944ZM240.306 32.1744H242.486V38.2944H242.586C242.813 37.6677 243.18 37.1877 243.686 36.8544C244.206 36.5077 244.813 36.3344 245.506 36.3344C246.826 36.3344 247.846 36.8144 248.566 37.7744C249.286 38.7211 249.646 40.0544 249.646 41.7744C249.646 43.4944 249.286 44.8344 248.566 45.7944C247.846 46.7411 246.826 47.2144 245.506 47.2144C244.813 47.2144 244.206 47.0411 243.686 46.6944C243.18 46.3477 242.813 45.8677 242.586 45.2544H242.486V46.9744H240.306V32.1744ZM244.846 45.3344C245.606 45.3344 246.213 45.0944 246.666 44.6144C247.12 44.1211 247.346 43.4744 247.346 42.6744V40.8744C247.346 40.0744 247.12 39.4344 246.666 38.9544C246.213 38.4611 245.606 38.2144 244.846 38.2144C244.18 38.2144 243.62 38.3811 243.166 38.7144C242.713 39.0344 242.486 39.4611 242.486 39.9944V43.5544C242.486 44.0877 242.713 44.5211 243.166 44.8544C243.62 45.1744 244.18 45.3344 244.846 45.3344ZM256.222 47.2144C255.502 47.2144 254.842 47.0877 254.242 46.8344C253.656 46.5811 253.156 46.2211 252.742 45.7544C252.329 45.2744 252.009 44.7011 251.782 44.0344C251.556 43.3544 251.442 42.6011 251.442 41.7744C251.442 40.9477 251.556 40.2011 251.782 39.5344C252.009 38.8544 252.329 38.2811 252.742 37.8144C253.156 37.3344 253.656 36.9677 254.242 36.7144C254.842 36.4611 255.502 36.3344 256.222 36.3344C256.942 36.3344 257.596 36.4611 258.182 36.7144C258.782 36.9677 259.289 37.3344 259.702 37.8144C260.116 38.2811 260.436 38.8544 260.662 39.5344C260.889 40.2011 261.002 40.9477 261.002 41.7744C261.002 42.6011 260.889 43.3544 260.662 44.0344C260.436 44.7011 260.116 45.2744 259.702 45.7544C259.289 46.2211 258.782 46.5811 258.182 46.8344C257.596 47.0877 256.942 47.2144 256.222 47.2144ZM256.222 45.4144C256.969 45.4144 257.569 45.1877 258.022 44.7344C258.476 44.2677 258.702 43.5744 258.702 42.6544V40.8944C258.702 39.9744 258.476 39.2877 258.022 38.8344C257.569 38.3677 256.969 38.1344 256.222 38.1344C255.476 38.1344 254.876 38.3677 254.422 38.8344C253.969 39.2877 253.742 39.9744 253.742 40.8944V42.6544C253.742 43.5744 253.969 44.2677 254.422 44.7344C254.876 45.1877 255.476 45.4144 256.222 45.4144ZM269.731 45.2544H269.651C269.558 45.5077 269.431 45.7544 269.271 45.9944C269.125 46.2344 268.931 46.4477 268.691 46.6344C268.465 46.8077 268.185 46.9477 267.851 47.0544C267.531 47.1611 267.158 47.2144 266.731 47.2144C265.651 47.2144 264.811 46.8677 264.211 46.1744C263.625 45.4811 263.331 44.4877 263.331 43.1944V36.5744H265.511V42.9144C265.511 44.5277 266.178 45.3344 267.511 45.3344C267.791 45.3344 268.065 45.3011 268.331 45.2344C268.598 45.1544 268.831 45.0411 269.031 44.8944C269.245 44.7477 269.411 44.5611 269.531 44.3344C269.665 44.1077 269.731 43.8411 269.731 43.5344V36.5744H271.911V46.9744H269.731V45.2544ZM277.913 46.9744C277.153 46.9744 276.58 46.7811 276.193 46.3944C275.806 45.9944 275.613 45.4344 275.613 44.7144V38.3544H273.993V36.5744H274.873C275.233 36.5744 275.48 36.4944 275.613 36.3344C275.76 36.1744 275.833 35.9144 275.833 35.5544V33.7344H277.793V36.5744H279.973V38.3544H277.793V45.1944H279.813V46.9744H277.913Z" fill="#161D25"/>
<path d="M201.971 38.8077L204.887 41.7244L207.804 38.8077" stroke="#007BFF" stroke-width="1.5" stroke-linecap="round" stroke-linejoin="round"/>
<path d="M150.187 40.8944H143.867V46.9744H141.607V33.0144H143.867V38.8944H150.187V33.0144H152.447V46.9744H150.187V40.8944ZM159.805 47.2144C159.085 47.2144 158.425 47.0877 157.825 46.8344C157.238 46.5811 156.738 46.2211 156.325 45.7544C155.911 45.2744 155.591 44.7011 155.365 44.0344C155.138 43.3544 155.025 42.6011 155.025 41.7744C155.025 40.9477 155.138 40.2011 155.365 39.5344C155.591 38.8544 155.911 38.2811 156.325 37.8144C156.738 37.3344 157.238 36.9677 157.825 36.7144C158.425 36.4611 159.085 36.3344 159.805 36.3344C160.525 36.3344 161.178 36.4611 161.765 36.7144C162.365 36.9677 162.871 37.3344 163.285 37.8144C163.698 38.2811 164.018 38.8544 164.245 39.5344C164.471 40.2011 164.585 40.9477 164.585 41.7744C164.585 42.6011 164.471 43.3544 164.245 44.0344C164.018 44.7011 163.698 45.2744 163.285 45.7544C162.871 46.2211 162.365 46.5811 161.765 46.8344C161.178 47.0877 160.525 47.2144 159.805 47.2144ZM159.805 45.4144C160.551 45.4144 161.151 45.1877 161.605 44.7344C162.058 44.2677 162.285 43.5744 162.285 42.6544V40.8944C162.285 39.9744 162.058 39.2877 161.605 38.8344C161.151 38.3677 160.551 38.1344 159.805 38.1344C159.058 38.1344 158.458 38.3677 158.005 38.8344C157.551 39.2877 157.325 39.9744 157.325 40.8944V42.6544C157.325 43.5744 157.551 44.2677 158.005 44.7344C158.458 45.1877 159.058 45.4144 159.805 45.4144ZM167.014 46.9744V36.5744H169.194V38.2944H169.294C169.401 38.0277 169.527 37.7744 169.674 37.5344C169.834 37.2944 170.021 37.0877 170.234 36.9144C170.461 36.7277 170.721 36.5877 171.014 36.4944C171.321 36.3877 171.674 36.3344 172.074 36.3344C172.781 36.3344 173.407 36.5077 173.954 36.8544C174.501 37.2011 174.901 37.7344 175.154 38.4544H175.214C175.401 37.8677 175.761 37.3677 176.294 36.9544C176.827 36.5411 177.514 36.3344 178.354 36.3344C179.394 36.3344 180.201 36.6877 180.774 37.3944C181.347 38.0877 181.634 39.0811 181.634 40.3744V46.9744H179.454V40.6344C179.454 39.8344 179.301 39.2344 178.994 38.8344C178.687 38.4211 178.201 38.2144 177.534 38.2144C177.254 38.2144 176.987 38.2544 176.734 38.3344C176.481 38.4011 176.254 38.5077 176.054 38.6544C175.867 38.8011 175.714 38.9877 175.594 39.2144C175.474 39.4411 175.414 39.7011 175.414 39.9944V46.9744H173.234V40.6344C173.234 39.0211 172.601 38.2144 171.334 38.2144C171.067 38.2144 170.801 38.2544 170.534 38.3344C170.281 38.4011 170.054 38.5077 169.854 38.6544C169.654 38.8011 169.494 38.9877 169.374 39.2144C169.254 39.4411 169.194 39.7011 169.194 39.9944V46.9744H167.014ZM188.731 47.2144C187.984 47.2144 187.317 47.0877 186.731 46.8344C186.144 46.5811 185.644 46.2211 185.231 45.7544C184.817 45.2744 184.497 44.7011 184.271 44.0344C184.057 43.3544 183.951 42.6011 183.951 41.7744C183.951 40.9477 184.057 40.2011 184.271 39.5344C184.497 38.8544 184.817 38.2811 185.231 37.8144C185.644 37.3344 186.144 36.9677 186.731 36.7144C187.317 36.4611 187.984 36.3344 188.731 36.3344C189.491 36.3344 190.157 36.4677 190.731 36.7344C191.317 37.0011 191.804 37.3744 192.191 37.8544C192.577 38.3211 192.864 38.8677 193.051 39.4944C193.251 40.1211 193.351 40.7944 193.351 41.5144V42.3344H186.211V42.6744C186.211 43.4744 186.444 44.1344 186.911 44.6544C187.391 45.1611 188.071 45.4144 188.951 45.4144C189.591 45.4144 190.131 45.2744 190.571 44.9944C191.011 44.7144 191.384 44.3344 191.691 43.8544L192.971 45.1144C192.584 45.7544 192.024 46.2677 191.291 46.6544C190.557 47.0277 189.704 47.2144 188.731 47.2144ZM188.731 38.0344C188.357 38.0344 188.011 38.1011 187.691 38.2344C187.384 38.3677 187.117 38.5544 186.891 38.7944C186.677 39.0344 186.511 39.3211 186.391 39.6544C186.271 39.9877 186.211 40.3544 186.211 40.7544V40.8944H191.051V40.6944C191.051 39.8944 190.844 39.2544 190.431 38.7744C190.017 38.2811 189.451 38.0344 188.731 38.0344Z" fill="#007BFF"/>
</svg>
