<svg width="510" height="96" viewBox="0 0 510 96" fill="none" xmlns="http://www.w3.org/2000/svg">
<g clip-path="url(#clip0_1427_973)">
<rect y="15.0108" width="551" height="80.4214" fill="#131619"/>
<rect y="60.1321" width="551" height="1" fill="#3F4248"/>
<path d="M75.002 85.8063H92.4844V86.6555H75.002V85.8063Z" fill="white"/>
<path d="M86.7439 76.1768V75.5484C87.344 75.1974 87.8139 74.8464 88.1535 74.4954C88.4932 74.1444 88.7536 73.7255 88.9348 73.2386H89.4273V75.3785H91.7031V76.1768H89.4273V81.3398C89.4273 81.7361 89.4443 82.0701 89.4783 82.3418C89.5236 82.6136 89.5915 82.8344 89.6821 83.0042C89.7727 83.1627 89.8915 83.2759 90.0387 83.3439C90.1859 83.4118 90.3727 83.4458 90.5992 83.4458C90.8823 83.4458 91.12 83.3892 91.3125 83.2759C91.5163 83.1514 91.7144 82.9476 91.9069 82.6645L92.3315 82.9872C92.173 83.4062 91.8956 83.7288 91.4993 83.9553C91.1144 84.1704 90.6332 84.278 90.0557 84.278C89.3084 84.278 88.7366 84.1025 88.3404 83.7515C87.9554 83.3892 87.7629 82.874 87.7629 82.206V76.1768H86.7439Z" fill="#007BFF"/>
<path d="M84.2921 81.3566C84.2921 81.7981 84.3091 82.1605 84.343 82.4435C84.377 82.7153 84.4393 82.9304 84.5299 83.0889C84.6204 83.2361 84.745 83.338 84.9035 83.3946C85.062 83.4512 85.2715 83.4795 85.5319 83.4795V84.1079H81.1671V83.4795C81.4841 83.4795 81.7389 83.4512 81.9314 83.3946C82.1238 83.338 82.271 83.2361 82.3729 83.0889C82.4748 82.9417 82.5428 82.7379 82.5767 82.4775C82.6107 82.2171 82.6277 81.8887 82.6277 81.4924V79.3525C82.6277 78.6958 82.6164 78.158 82.5937 77.739C82.5711 77.3201 82.5428 77.0314 82.5088 76.8729C82.4522 76.6011 82.322 76.42 82.1182 76.3294C81.9144 76.2275 81.5294 76.1766 80.9633 76.1766H78.8403V81.3736C78.8403 81.7925 78.8573 82.1435 78.8913 82.4265C78.9366 82.6983 79.0102 82.9134 79.1121 83.0719C79.2253 83.2304 79.3725 83.3437 79.5536 83.4116C79.7348 83.4795 79.9726 83.5135 80.267 83.5135V84.1079H75.9531V83.5135C76.2362 83.5135 76.4626 83.4909 76.6324 83.4456C76.8023 83.4003 76.9325 83.304 77.0231 83.1568C77.1137 83.0097 77.1703 82.8058 77.1929 82.5454C77.2269 82.285 77.2439 81.9397 77.2439 81.5094V76.1766H75.3247V75.3783H77.2439V74.1555C77.2439 72.8534 77.6175 71.8401 78.3648 71.1154C79.1121 70.3795 80.1707 70.0115 81.5407 70.0115C82.3446 70.0115 82.9957 70.1134 83.4939 70.3172C84.0034 70.5097 84.2581 70.7644 84.2581 71.0814C84.2581 71.3079 84.1845 71.5004 84.0373 71.6589C83.9015 71.8061 83.726 71.8797 83.5108 71.8797C83.375 71.8797 83.2221 71.8401 83.0523 71.7608C82.8824 71.6815 82.6673 71.5513 82.4069 71.3702C82.2371 71.2569 82.0899 71.1664 81.9653 71.0984C81.8408 71.0192 81.7219 70.9626 81.6087 70.9286C81.5068 70.8833 81.3992 70.855 81.286 70.8437C81.1841 70.8324 81.0595 70.8267 80.9123 70.8267C80.5613 70.8267 80.2556 70.872 79.9952 70.9626C79.7348 71.0531 79.5197 71.2173 79.3498 71.4551C79.18 71.6929 79.0498 72.0212 78.9592 72.4401C78.88 72.8591 78.8403 73.3969 78.8403 74.0536V75.3783H81.5577L84.2921 74.9367V81.3566Z" fill="#007BFF"/>
<path d="M68.5343 84.1079H68.0078V81.0169H68.7211C68.9136 81.8321 69.191 82.4266 69.5533 82.8002C69.9156 83.1738 70.3855 83.3607 70.963 83.3607C71.3819 83.3607 71.7046 83.2757 71.931 83.1059C72.1688 82.9247 72.2877 82.6813 72.2877 82.3756C72.2877 82.0586 72.1462 81.7529 71.8631 81.4585C71.58 81.1528 71.1215 80.8301 70.4874 80.4904C69.6269 80.0262 69.0098 79.5676 68.6362 79.1147C68.2626 78.6505 68.0757 78.1297 68.0757 77.5522C68.0757 77.1786 68.1437 76.8333 68.2796 76.5162C68.4267 76.1879 68.6192 75.9048 68.857 75.6671C69.1061 75.4293 69.4005 75.2481 69.7401 75.1236C70.0798 74.9877 70.4478 74.9198 70.8441 74.9198C71.1951 74.9198 71.5404 74.9707 71.8801 75.0726C72.2311 75.1745 72.5368 75.3161 72.7972 75.4972L73.1029 75.0896H73.5445V77.6541H72.8821C72.6217 77.0088 72.35 76.5445 72.0669 76.2615C71.7952 75.9784 71.4612 75.8369 71.0649 75.8369C70.7478 75.8369 70.4931 75.9218 70.3006 76.0916C70.1194 76.2615 70.0289 76.4879 70.0289 76.771C70.0289 77.088 70.1647 77.3881 70.4365 77.6711C70.7195 77.9542 71.1838 78.2656 71.8291 78.6052C72.282 78.8543 72.6727 79.0978 73.001 79.3355C73.3294 79.5733 73.5954 79.8167 73.7992 80.0658C74.0031 80.3036 74.1502 80.5584 74.2408 80.8301C74.3427 81.0905 74.3937 81.3736 74.3937 81.6793C74.3937 82.0756 74.3201 82.4322 74.1729 82.7492C74.0257 83.0663 73.8162 83.338 73.5445 83.5645C73.2728 83.7909 72.9444 83.9664 72.5594 84.091C72.1858 84.2155 71.7669 84.2778 71.3026 84.2778C70.8158 84.2778 70.3629 84.2155 69.944 84.091C69.525 83.9551 69.1797 83.7626 68.9079 83.5135L68.5343 84.1079Z" fill="white"/>
<path d="M57.5128 84.2779H56.239L53.9122 77.2976C53.7311 76.7541 53.5216 76.3748 53.2839 76.1597C53.0461 75.9333 52.729 75.8087 52.3328 75.7861V75.1067H57.1901V75.7861C56.7825 75.7974 56.4994 75.8597 56.3409 75.9729C56.1824 76.0748 56.1031 76.2559 56.1031 76.5164C56.1031 76.6409 56.1201 76.7768 56.1541 76.924C56.1881 77.0712 56.2333 77.241 56.29 77.4335L57.3599 81.4077H57.4279L59.8056 75.1067H61.1982L62.9815 81.4077H63.0664L64.4251 77.892C64.5384 77.609 64.6176 77.3655 64.6629 77.1617C64.7082 76.9466 64.7309 76.7598 64.7309 76.6013C64.7309 76.3069 64.6346 76.0974 64.4421 75.9729C64.2496 75.8483 63.9892 75.7861 63.6609 75.7861V75.1067H67.3124V75.7861C67.1086 75.7861 66.9387 75.8087 66.8029 75.854C66.667 75.8993 66.5311 76.0069 66.3953 76.1767C66.2594 76.3465 66.1122 76.6069 65.9537 76.9579C65.7952 77.3089 65.597 77.7901 65.3592 78.4016L63.0155 84.2779H61.6738L59.8735 78.2487H59.8056L57.5128 84.2779Z" fill="white"/>
<path d="M51.6489 82.5283C50.6185 83.6945 49.3334 84.2776 47.7936 84.2776C47.0916 84.2776 46.4518 84.17 45.8744 83.9549C45.3083 83.7285 44.8214 83.4171 44.4138 83.0208C44.0062 82.6132 43.6892 82.132 43.4627 81.5772C43.2363 81.0224 43.123 80.4053 43.123 79.726C43.123 79.024 43.2419 78.3843 43.4797 77.8068C43.7175 77.2181 44.0515 76.7142 44.4817 76.2953C44.9233 75.865 45.4385 75.531 46.0273 75.2932C46.6273 75.0555 47.284 74.9366 47.9974 74.9366C49.1975 74.9366 50.1316 75.2593 50.7997 75.9047C51.4677 76.55 51.8017 77.4558 51.8017 78.622C51.8017 78.8032 51.7734 78.9164 51.7168 78.9617C51.6602 78.9957 51.5017 79.0127 51.2412 79.0127H45.7725C45.7272 79.1146 45.7046 79.3014 45.7046 79.5731C45.7046 80.6827 45.9423 81.5602 46.4179 82.2056C46.9047 82.851 47.5614 83.1737 48.388 83.1737C48.8635 83.1737 49.3334 83.0661 49.7976 82.851C50.2732 82.6359 50.7317 82.3301 51.1733 81.9339L51.6489 82.5283ZM48.354 78.0616C48.8069 78.0616 49.0956 78.0389 49.2202 77.9936C49.3561 77.937 49.424 77.8125 49.424 77.62C49.424 77.1218 49.2825 76.7142 48.9994 76.3972C48.7163 76.0802 48.3597 75.9216 47.9294 75.9216C47.4426 75.9216 47.0066 76.1254 46.6217 76.5331C46.248 76.9293 46.0046 77.4388 45.8914 78.0616H48.354Z" fill="white"/>
<path d="M38.3324 84.2777L30.8087 73.561H30.7407V80.8639C30.7407 81.4301 30.7577 81.8773 30.7917 82.2057C30.837 82.534 30.9219 82.7888 31.0464 82.9699C31.1823 83.1511 31.3635 83.27 31.5899 83.3266C31.8277 83.3832 32.1334 83.4172 32.507 83.4285V84.1078H27.4629V83.4285C27.8818 83.4172 28.2158 83.3832 28.4649 83.3266C28.7253 83.2586 28.9235 83.1398 29.0594 82.9699C29.2065 82.8001 29.3028 82.5623 29.3481 82.2566C29.3934 81.9396 29.416 81.515 29.416 80.9828V74.1554C29.416 73.6798 29.3934 73.2892 29.3481 72.9835C29.3028 72.6665 29.2179 72.4174 29.0933 72.2362C28.9688 72.0551 28.7876 71.9305 28.5498 71.8626C28.3234 71.7833 28.0177 71.7324 27.6327 71.7097V71.0304H32.3712L39.2156 80.847H39.2835V74.2743C39.2835 73.7195 39.2609 73.2779 39.2156 72.9496C39.1816 72.6099 39.0967 72.3495 38.9608 72.1683C38.8363 71.9871 38.6551 71.8683 38.4174 71.8116C38.1909 71.755 37.8909 71.7211 37.5172 71.7097V71.0304H42.5614V71.7097C42.1425 71.7211 41.8028 71.7607 41.5424 71.8286C41.2933 71.8852 41.0951 71.9985 40.9479 72.1683C40.8121 72.3381 40.7215 72.5816 40.6762 72.8986C40.6309 73.2156 40.6083 73.6346 40.6083 74.1554V84.2777H38.3324Z" fill="white"/>
<path d="M486.604 81.8928C486.406 81.8928 486.26 81.8433 486.168 81.7444C486.081 81.6454 486.038 81.5156 486.038 81.3548V81.2342C486.038 81.0734 486.081 80.9436 486.168 80.8446C486.26 80.7457 486.406 80.6962 486.604 80.6962C486.802 80.6962 486.944 80.7457 487.03 80.8446C487.123 80.9436 487.169 81.0734 487.169 81.2342V81.3548C487.169 81.5156 487.123 81.6454 487.03 81.7444C486.944 81.8433 486.802 81.8928 486.604 81.8928Z" fill="#D9D9D9"/>
<path d="M480.265 75.3091H482.434C482.836 75.3091 483.201 75.3771 483.528 75.5131C483.856 75.6491 484.134 75.8531 484.363 76.1251C484.598 76.3909 484.777 76.7278 484.901 77.1357C485.024 77.5375 485.086 78.0073 485.086 78.5451C485.086 79.0828 485.024 79.5557 484.901 79.9637C484.777 80.3654 484.598 80.7023 484.363 80.9743C484.134 81.2401 483.856 81.441 483.528 81.577C483.201 81.713 482.836 81.781 482.434 81.781H480.265V75.3091ZM482.434 81.0948C482.7 81.0948 482.944 81.0516 483.167 80.965C483.389 80.8723 483.581 80.7394 483.742 80.5663C483.902 80.3933 484.026 80.1831 484.113 79.9358C484.205 79.6824 484.252 79.395 484.252 79.0736V78.0166C484.252 77.6951 484.205 77.4108 484.113 77.1635C484.026 76.9101 483.902 76.6968 483.742 76.5238C483.581 76.3507 483.389 76.2209 483.167 76.1343C482.944 76.0416 482.7 75.9953 482.434 75.9953H481.044V81.0948H482.434Z" fill="#D9D9D9"/>
<path d="M475.113 81.781H474.334V75.3091H476.912C477.48 75.3091 477.922 75.4668 478.238 75.782C478.559 76.0973 478.72 76.5516 478.72 77.145C478.72 77.6209 478.608 78.0135 478.386 78.3225C478.17 78.6254 477.848 78.8263 477.422 78.9252L478.905 81.781H478.024L476.624 78.9994H475.113V81.781ZM476.912 78.3318C477.221 78.3318 477.459 78.2514 477.626 78.0907C477.799 77.93 477.885 77.7013 477.885 77.4046V76.9225C477.885 76.6258 477.799 76.3971 477.626 76.2363C477.459 76.0756 477.221 75.9953 476.912 75.9953H475.113V78.3318H476.912Z" fill="#D9D9D9"/>
<path d="M470.39 76.9967H471.123L468.981 82.8936C468.925 83.0358 468.87 83.1532 468.814 83.246C468.758 83.3449 468.69 83.4221 468.61 83.4778C468.53 83.5334 468.428 83.5736 468.304 83.5983C468.187 83.623 468.041 83.6354 467.868 83.6354H467.488V82.9864H468.239L468.601 81.9664L466.811 76.9967H467.553L468.703 80.2511L468.925 81.03H468.972L469.231 80.2511L470.39 76.9967Z" fill="#D9D9D9"/>
<path d="M462.108 74.9197H462.85V77.7754H462.887C463.011 77.4726 463.19 77.25 463.425 77.1079C463.666 76.9595 463.954 76.8853 464.287 76.8853C464.584 76.8853 464.853 76.9441 465.094 77.0615C465.335 77.1789 465.539 77.3458 465.706 77.5622C465.879 77.7785 466.009 78.0412 466.095 78.3503C466.188 78.6594 466.234 79.0055 466.234 79.3888C466.234 79.772 466.188 80.1181 466.095 80.4272C466.009 80.7363 465.879 80.999 465.706 81.2153C465.539 81.4317 465.335 81.5986 465.094 81.716C464.853 81.8335 464.584 81.8922 464.287 81.8922C463.638 81.8922 463.172 81.5955 462.887 81.0021H462.85V81.7809H462.108V74.9197ZM464.083 81.2246C464.504 81.2246 464.834 81.0948 465.075 80.8352C465.316 80.5694 465.437 80.2232 465.437 79.7967V78.9808C465.437 78.5543 465.316 78.2112 465.075 77.9516C464.834 77.6858 464.504 77.5529 464.083 77.5529C463.916 77.5529 463.756 77.5776 463.601 77.6271C463.453 77.6704 463.323 77.7322 463.212 77.8125C463.101 77.8929 463.011 77.9918 462.943 78.1092C462.881 78.2205 462.85 78.341 462.85 78.4708V80.251C462.85 80.4056 462.881 80.5447 462.943 80.6683C463.011 80.7857 463.101 80.8877 463.212 80.9743C463.323 81.0546 463.453 81.1164 463.601 81.1597C463.756 81.203 463.916 81.2246 464.083 81.2246Z" fill="#D9D9D9"/>
<path d="M455.99 78.0537C456.429 78.0537 456.756 77.9548 456.972 77.757C457.195 77.553 457.306 77.2934 457.306 76.9781V76.9132C457.306 76.5732 457.198 76.3198 456.982 76.1529C456.772 75.9798 456.493 75.8933 456.147 75.8933C455.813 75.8933 455.542 75.9675 455.331 76.1158C455.121 76.258 454.948 76.4527 454.812 76.7L454.237 76.2549C454.318 76.1251 454.413 75.9984 454.525 75.8748C454.642 75.745 454.778 75.6306 454.933 75.5317C455.087 75.4328 455.266 75.3524 455.47 75.2906C455.674 75.2288 455.906 75.1979 456.166 75.1979C456.438 75.1979 456.694 75.235 456.935 75.3092C457.176 75.3772 457.384 75.4822 457.557 75.6244C457.736 75.7604 457.875 75.9304 457.974 76.1344C458.079 76.3384 458.131 76.5702 458.131 76.8298C458.131 77.0399 458.097 77.2285 458.029 77.3954C457.968 77.5623 457.881 77.7075 457.77 77.8311C457.659 77.9548 457.526 78.0598 457.371 78.1464C457.223 78.2329 457.062 78.2978 456.889 78.3411V78.3782C457.062 78.4153 457.229 78.4771 457.39 78.5636C457.557 78.644 457.702 78.7522 457.826 78.8881C457.955 79.0179 458.057 79.1787 458.131 79.3703C458.212 79.5557 458.252 79.769 458.252 80.01C458.252 80.2882 458.199 80.5447 458.094 80.7796C457.989 81.0083 457.841 81.2061 457.649 81.373C457.458 81.5337 457.226 81.6605 456.954 81.7532C456.682 81.8459 456.382 81.8923 456.055 81.8923C455.776 81.8923 455.529 81.8613 455.313 81.7995C455.096 81.7377 454.905 81.6543 454.738 81.5492C454.571 81.4441 454.423 81.3267 454.293 81.1969C454.169 81.067 454.058 80.9311 453.959 80.7889L454.543 80.3438C454.624 80.4736 454.71 80.5911 454.803 80.6962C454.902 80.8013 455.01 80.8909 455.127 80.9651C455.245 81.0392 455.378 81.098 455.526 81.1412C455.674 81.1783 455.847 81.1969 456.045 81.1969C456.503 81.1969 456.849 81.0949 457.084 80.8909C457.319 80.6807 457.436 80.384 457.436 80.0008V79.9266C457.436 79.5434 457.319 79.2497 457.084 79.0458C456.849 78.8356 456.503 78.7305 456.045 78.7305H455.285V78.0537H455.99Z" fill="#D9D9D9"/>
<path d="M452.952 81.781H448.705V80.9836L450.819 79.0365C451.122 78.7583 451.376 78.4647 451.58 78.1557C451.784 77.8404 451.886 77.5252 451.886 77.2099V77.0987C451.886 76.7401 451.787 76.4496 451.589 76.2271C451.391 76.0046 451.091 75.8933 450.69 75.8933C450.492 75.8933 450.319 75.9211 450.17 75.9768C450.022 76.0324 449.892 76.1096 449.781 76.2085C449.676 76.3074 449.586 76.4249 449.512 76.5609C449.444 76.6907 449.388 76.8329 449.345 76.9874L448.65 76.7185C448.712 76.5269 448.795 76.3414 448.9 76.1622C449.011 75.9768 449.147 75.8129 449.308 75.6708C449.475 75.5286 449.673 75.4143 449.901 75.3277C450.136 75.2412 450.411 75.1979 450.727 75.1979C451.042 75.1979 451.323 75.2443 451.57 75.337C451.818 75.4297 452.025 75.5595 452.192 75.7264C452.359 75.8933 452.485 76.0911 452.572 76.3198C452.665 76.5485 452.711 76.802 452.711 77.0801C452.711 77.3335 452.674 77.5684 452.6 77.7848C452.532 78.0011 452.436 78.2082 452.312 78.406C452.189 78.5976 452.037 78.7862 451.858 78.9716C451.685 79.157 451.496 79.3425 451.292 79.5279L449.549 81.0949H452.952V81.781Z" fill="#D9D9D9"/>
<path d="M445.232 81.8923C444.459 81.8923 443.894 81.5986 443.535 81.0114C443.183 80.4242 443.007 79.6021 443.007 78.5451C443.007 77.4881 443.183 76.666 443.535 76.0787C443.894 75.4915 444.459 75.1979 445.232 75.1979C446.005 75.1979 446.567 75.4915 446.92 76.0787C447.278 76.666 447.457 77.4881 447.457 78.5451C447.457 79.6021 447.278 80.4242 446.92 81.0114C446.567 81.5986 446.005 81.8923 445.232 81.8923ZM445.232 81.2154C445.486 81.2154 445.702 81.1629 445.881 81.0578C446.06 80.9527 446.206 80.8043 446.317 80.6127C446.428 80.4211 446.509 80.1955 446.558 79.9359C446.614 79.6763 446.641 79.3888 446.641 79.0736V78.0166C446.641 77.7013 446.614 77.4139 446.558 77.1543C446.509 76.8947 446.428 76.6691 446.317 76.4774C446.206 76.2858 446.06 76.1375 445.881 76.0324C445.702 75.9273 445.486 75.8748 445.232 75.8748C444.979 75.8748 444.762 75.9273 444.583 76.0324C444.404 76.1375 444.259 76.2858 444.147 76.4774C444.036 76.6691 443.953 76.8947 443.897 77.1543C443.847 77.4139 443.823 77.7013 443.823 78.0166V79.0736C443.823 79.3888 443.847 79.6763 443.897 79.9359C443.953 80.1955 444.036 80.4211 444.147 80.6127C444.259 80.8043 444.404 80.9527 444.583 81.0578C444.762 81.1629 444.979 81.2154 445.232 81.2154Z" fill="#D9D9D9"/>
<path d="M441.833 81.781H437.586V80.9836L439.7 79.0365C440.003 78.7583 440.257 78.4647 440.461 78.1557C440.665 77.8404 440.767 77.5252 440.767 77.2099V77.0987C440.767 76.7401 440.668 76.4496 440.47 76.2271C440.272 76.0046 439.972 75.8933 439.571 75.8933C439.373 75.8933 439.2 75.9211 439.051 75.9768C438.903 76.0324 438.773 76.1096 438.662 76.2085C438.557 76.3074 438.467 76.4249 438.393 76.5609C438.325 76.6907 438.269 76.8329 438.226 76.9874L437.531 76.7185C437.593 76.5269 437.676 76.3414 437.781 76.1622C437.892 75.9768 438.028 75.8129 438.189 75.6708C438.356 75.5286 438.554 75.4143 438.782 75.3277C439.017 75.2412 439.292 75.1979 439.608 75.1979C439.923 75.1979 440.204 75.2443 440.451 75.337C440.699 75.4297 440.906 75.5595 441.073 75.7264C441.24 75.8933 441.366 76.0911 441.453 76.3198C441.546 76.5485 441.592 76.802 441.592 77.0801C441.592 77.3335 441.555 77.5684 441.481 77.7848C441.413 78.0011 441.317 78.2082 441.193 78.406C441.07 78.5976 440.918 78.7862 440.739 78.9716C440.566 79.157 440.377 79.3425 440.173 79.5279L438.43 81.0949H441.833V81.781Z" fill="#D9D9D9"/>
<path d="M431.099 81.883C430.666 81.883 430.261 81.8058 429.884 81.6512C429.507 81.4967 429.18 81.2773 428.901 80.9929C428.623 80.7024 428.404 80.3501 428.243 79.9359C428.082 79.5218 428.002 79.0582 428.002 78.5451C428.002 78.0321 428.082 77.5685 428.243 77.1544C428.404 76.7402 428.623 76.391 428.901 76.1066C429.18 75.8161 429.507 75.5936 429.884 75.439C430.261 75.2845 430.666 75.2072 431.099 75.2072C431.532 75.2072 431.936 75.2845 432.314 75.439C432.691 75.5936 433.018 75.8161 433.296 76.1066C433.575 76.391 433.794 76.7402 433.955 77.1544C434.115 77.5685 434.196 78.0321 434.196 78.5451C434.196 79.0582 434.115 79.5218 433.955 79.9359C433.794 80.3501 433.575 80.7024 433.296 80.9929C433.018 81.2773 432.691 81.4967 432.314 81.6512C431.936 81.8058 431.532 81.883 431.099 81.883ZM431.099 81.3267C431.457 81.3267 431.788 81.2649 432.091 81.1413C432.394 81.0115 432.654 80.8353 432.87 80.6128C433.092 80.3903 433.262 80.1276 433.38 79.8247C433.503 79.5156 433.565 79.1818 433.565 78.8233V78.267C433.565 77.9085 433.503 77.5778 433.38 77.2749C433.262 76.9658 433.092 76.7 432.87 76.4775C432.654 76.255 432.394 76.0819 432.091 75.9583C431.788 75.8285 431.457 75.7636 431.099 75.7636C430.734 75.7636 430.4 75.8285 430.098 75.9583C429.801 76.0819 429.541 76.255 429.319 76.4775C429.102 76.7 428.932 76.9658 428.809 77.2749C428.691 77.5778 428.633 77.9085 428.633 78.267V78.8233C428.633 79.1818 428.691 79.5156 428.809 79.8247C428.932 80.1276 429.102 80.3903 429.319 80.6128C429.541 80.8353 429.801 81.0115 430.098 81.1413C430.4 81.2649 430.734 81.3267 431.099 81.3267ZM431.173 80.3439C430.691 80.3439 430.314 80.1832 430.042 79.8618C429.776 79.5342 429.643 79.0953 429.643 78.5451C429.643 77.995 429.776 77.5592 430.042 77.2378C430.314 76.9102 430.691 76.7464 431.173 76.7464C431.488 76.7464 431.745 76.8206 431.943 76.9689C432.147 77.1173 432.301 77.312 432.406 77.553L431.878 77.8498C431.81 77.689 431.72 77.5623 431.609 77.4696C431.498 77.3769 431.352 77.3305 431.173 77.3305C430.901 77.3305 430.694 77.4171 430.552 77.5901C430.416 77.757 430.348 77.9765 430.348 78.2484V78.8511C430.348 79.1231 430.416 79.3456 430.552 79.5187C430.694 79.6856 430.901 79.769 431.173 79.769C431.371 79.769 431.529 79.7196 431.646 79.6207C431.763 79.5156 431.868 79.3796 431.961 79.2127L432.462 79.528C432.357 79.7629 432.196 79.9576 431.98 80.1121C431.77 80.2666 431.501 80.3439 431.173 80.3439Z" fill="#D9D9D9"/>
<path d="M426.096 81.781C425.836 81.781 425.638 81.7099 425.502 81.5677C425.373 81.4194 425.308 81.2278 425.308 80.9929V77.6457H424.52V76.9967H424.965C425.125 76.9967 425.233 76.9658 425.289 76.9039C425.351 76.836 425.382 76.7216 425.382 76.5609V75.6708H426.049V76.9967H427.097V77.6457H426.049V81.132H427.023V81.781H426.096Z" fill="#D9D9D9"/>
<path d="M419.769 74.9197H420.511V77.7754H420.548C420.665 77.5035 420.829 77.2871 421.039 77.1264C421.256 76.9657 421.543 76.8853 421.901 76.8853C422.396 76.8853 422.785 77.046 423.07 77.3675C423.36 77.6827 423.506 78.1309 423.506 78.7119V81.7809H422.764V78.8417C422.764 77.9825 422.402 77.5529 421.679 77.5529C421.531 77.5529 421.385 77.5715 421.243 77.6085C421.107 77.6456 420.984 77.7013 420.872 77.7754C420.761 77.8496 420.671 77.9454 420.603 78.0629C420.542 78.1741 420.511 78.307 420.511 78.4616V81.7809H419.769V74.9197Z" fill="#D9D9D9"/>
<path d="M418.904 82.3095C418.904 82.804 418.709 83.1656 418.32 83.3943C417.936 83.6292 417.358 83.7466 416.586 83.7466C415.838 83.7466 415.3 83.6446 414.972 83.4407C414.645 83.2367 414.481 82.9462 414.481 82.5691C414.481 82.3095 414.549 82.1055 414.685 81.9572C414.821 81.815 415.006 81.7099 415.241 81.6419V81.5399C414.957 81.4039 414.815 81.1814 414.815 80.8723C414.815 80.6313 414.892 80.4489 415.047 80.3253C415.201 80.1955 415.399 80.0997 415.64 80.0379V80.0008C415.356 79.8648 415.133 79.6701 414.972 79.4166C414.818 79.1632 414.741 78.8696 414.741 78.5358C414.741 78.2947 414.784 78.0722 414.871 77.8682C414.957 77.6642 415.078 77.4912 415.232 77.349C415.393 77.2006 415.581 77.0863 415.798 77.0059C416.02 76.9256 416.267 76.8854 416.539 76.8854C416.879 76.8854 417.182 76.9472 417.448 77.0708V76.9874C417.448 76.802 417.491 76.6505 417.578 76.5331C417.664 76.4094 417.807 76.3476 418.004 76.3476H418.718V76.9967H417.81V77.3026C417.983 77.451 418.116 77.6302 418.208 77.8404C418.307 78.0444 418.357 78.2762 418.357 78.5358C418.357 78.7769 418.313 78.9994 418.227 79.2034C418.14 79.4074 418.017 79.5835 417.856 79.7319C417.702 79.8741 417.513 79.9853 417.29 80.0657C417.068 80.146 416.821 80.1862 416.549 80.1862C416.394 80.1862 416.24 80.1708 416.085 80.1399C415.924 80.1831 415.779 80.248 415.649 80.3346C415.52 80.4149 415.455 80.5293 415.455 80.6776C415.455 80.8198 415.523 80.9156 415.659 80.9651C415.795 81.0145 415.971 81.0392 416.187 81.0392H417.207C417.8 81.0392 418.23 81.1536 418.496 81.3823C418.768 81.6048 418.904 81.9139 418.904 82.3095ZM418.208 82.3651C418.208 82.1735 418.134 82.019 417.986 81.9015C417.844 81.7903 417.587 81.7346 417.216 81.7346H415.622C415.325 81.8706 415.176 82.087 415.176 82.3837C415.176 82.5938 415.254 82.7731 415.408 82.9214C415.569 83.0698 415.838 83.144 416.215 83.144H416.901C417.315 83.144 417.637 83.0791 417.865 82.9493C418.094 82.8194 418.208 82.6247 418.208 82.3651ZM416.549 79.5928C416.864 79.5928 417.114 79.5186 417.3 79.3703C417.485 79.2157 417.578 78.9809 417.578 78.6656V78.406C417.578 78.0908 417.485 77.859 417.3 77.7106C417.114 77.5561 416.864 77.4788 416.549 77.4788C416.233 77.4788 415.983 77.5561 415.798 77.7106C415.612 77.859 415.52 78.0908 415.52 78.406V78.6656C415.52 78.9809 415.612 79.2157 415.798 79.3703C415.983 79.5186 416.233 79.5928 416.549 79.5928Z" fill="#D9D9D9"/>
<path d="M412.923 75.8747C412.763 75.8747 412.645 75.8376 412.571 75.7634C412.503 75.6831 412.469 75.5811 412.469 75.4575V75.3369C412.469 75.2133 412.503 75.1144 412.571 75.0402C412.645 74.9599 412.763 74.9197 412.923 74.9197C413.084 74.9197 413.198 74.9599 413.266 75.0402C413.341 75.1144 413.378 75.2133 413.378 75.3369V75.4575C413.378 75.5811 413.341 75.6831 413.266 75.7634C413.198 75.8376 413.084 75.8747 412.923 75.8747ZM412.552 76.9966H413.294V81.7809H412.552V76.9966Z" fill="#D9D9D9"/>
<path d="M409.148 81.781V76.9967H409.89V77.8775H409.936C410.023 77.6488 410.177 77.4448 410.4 77.2656C410.622 77.0863 410.928 76.9967 411.318 76.9967H411.605V77.7384H411.169C410.767 77.7384 410.452 77.8157 410.223 77.9702C410.001 78.1186 409.89 78.3071 409.89 78.5358V81.781H409.148Z" fill="#D9D9D9"/>
<path d="M407.469 76.9967H408.202L406.06 82.8936C406.005 83.0358 405.949 83.1532 405.893 83.246C405.838 83.3449 405.77 83.4221 405.689 83.4778C405.609 83.5334 405.507 83.5736 405.383 83.5983C405.266 83.623 405.121 83.6354 404.948 83.6354H404.567V82.9864H405.318L405.68 81.9664L403.891 76.9967H404.632L405.782 80.2511L406.005 81.03H406.051L406.31 80.2511L407.469 76.9967Z" fill="#D9D9D9"/>
<path d="M399.188 76.9967H399.929V77.7755H399.967C400.09 77.4727 400.269 77.2501 400.504 77.108C400.745 76.9596 401.033 76.8854 401.367 76.8854C401.663 76.8854 401.932 76.9442 402.173 77.0616C402.414 77.179 402.618 77.3459 402.785 77.5623C402.958 77.7786 403.088 78.0413 403.175 78.3504C403.267 78.6595 403.314 79.0056 403.314 79.3889C403.314 79.7721 403.267 80.1183 403.175 80.4273C403.088 80.7364 402.958 80.9991 402.785 81.2154C402.618 81.4318 402.414 81.5987 402.173 81.7161C401.932 81.8336 401.663 81.8923 401.367 81.8923C400.718 81.8923 400.251 81.5956 399.967 81.0022H399.929V83.6354H399.188V76.9967ZM401.163 81.2247C401.583 81.2247 401.914 81.0949 402.155 80.8353C402.396 80.5695 402.516 80.2233 402.516 79.7968V78.9809C402.516 78.5544 402.396 78.2113 402.155 77.9517C401.914 77.6859 401.583 77.553 401.163 77.553C400.996 77.553 400.835 77.5777 400.681 77.6272C400.532 77.6705 400.402 77.7323 400.291 77.8126C400.18 77.893 400.09 77.9919 400.022 78.1093C399.96 78.2206 399.929 78.3411 399.929 78.4709V80.2512C399.929 80.4057 399.96 80.5448 400.022 80.6684C400.09 80.7858 400.18 80.8878 400.291 80.9744C400.402 81.0547 400.532 81.1165 400.681 81.1598C400.835 81.2031 400.996 81.2247 401.163 81.2247Z" fill="#D9D9D9"/>
<path d="M395.808 81.8923C395.486 81.8923 395.193 81.8336 394.927 81.7161C394.661 81.5987 394.432 81.4318 394.241 81.2154C394.055 80.9929 393.91 80.7302 393.805 80.4273C393.7 80.1183 393.647 79.7721 393.647 79.3889C393.647 79.0118 393.7 78.6687 393.805 78.3597C393.91 78.0506 394.055 77.7879 394.241 77.5716C394.432 77.349 394.661 77.179 394.927 77.0616C395.193 76.9442 395.486 76.8854 395.808 76.8854C396.129 76.8854 396.42 76.9442 396.679 77.0616C396.945 77.179 397.174 77.349 397.365 77.5716C397.557 77.7879 397.705 78.0506 397.81 78.3597C397.915 78.6687 397.968 79.0118 397.968 79.3889C397.968 79.7721 397.915 80.1183 397.81 80.4273C397.705 80.7302 397.557 80.9929 397.365 81.2154C397.174 81.4318 396.945 81.5987 396.679 81.7161C396.42 81.8336 396.129 81.8923 395.808 81.8923ZM395.808 81.234C396.209 81.234 396.537 81.1104 396.79 80.8631C397.044 80.6159 397.171 80.2388 397.171 79.7319V79.0458C397.171 78.5389 397.044 78.1619 396.79 77.9146C396.537 77.6674 396.209 77.5437 395.808 77.5437C395.406 77.5437 395.078 77.6674 394.825 77.9146C394.571 78.1619 394.445 78.5389 394.445 79.0458V79.7319C394.445 80.2388 394.571 80.6159 394.825 80.8631C395.078 81.1104 395.406 81.234 395.808 81.234Z" fill="#D9D9D9"/>
<path d="M390.596 81.8923C389.774 81.8923 389.134 81.6141 388.677 81.0578C388.219 80.4953 387.99 79.6701 387.99 78.5822C387.99 77.4943 388.219 76.6598 388.677 76.0787C389.134 75.4915 389.774 75.1979 390.596 75.1979C391.14 75.1979 391.594 75.3215 391.959 75.5688C392.33 75.816 392.617 76.1653 392.821 76.6165L392.191 76.9967C392.061 76.6629 391.863 76.3971 391.597 76.1993C391.331 75.9953 390.998 75.8933 390.596 75.8933C390.318 75.8933 390.067 75.9458 389.845 76.0509C389.629 76.156 389.443 76.3074 389.289 76.5053C389.14 76.6969 389.026 76.9287 388.945 77.2006C388.865 77.4664 388.825 77.7662 388.825 78.1V79.0643C388.825 79.7319 388.979 80.2542 389.289 80.6313C389.598 81.0083 390.033 81.1969 390.596 81.1969C391.01 81.1969 391.356 81.0918 391.634 80.8816C391.913 80.6653 392.116 80.3809 392.246 80.0286L392.868 80.418C392.664 80.8754 392.37 81.237 391.987 81.5028C391.603 81.7624 391.14 81.8923 390.596 81.8923Z" fill="#D9D9D9"/>
<g filter="url(#filter0_d_1427_973)">
<circle cx="462.108" cy="15.0108" r="13.2812" fill="white"/>
</g>
<path d="M458.39 13.1514V15.542L462.108 12.8857L465.827 15.542V13.1514L462.108 10.4951L458.39 13.1514Z" fill="#007BFF"/>
<path d="M458.39 16.8701V19.2607L462.108 16.6045L465.827 19.2607V16.8701L462.108 14.2139L458.39 16.8701Z" fill="#007BFF"/>
<path d="M438.642 48.8088C437.755 48.8088 437.065 48.5088 436.572 47.9088C436.079 47.3021 435.832 46.4121 435.832 45.2388C435.832 44.0654 436.079 43.1654 436.572 42.5388C437.065 41.9054 437.755 41.5888 438.642 41.5888C439.229 41.5888 439.719 41.7221 440.112 41.9888C440.512 42.2554 440.822 42.6321 441.042 43.1188L440.362 43.5288C440.222 43.1688 440.009 42.8821 439.722 42.6688C439.435 42.4488 439.075 42.3388 438.642 42.3388C438.342 42.3388 438.072 42.3954 437.832 42.5088C437.599 42.6221 437.399 42.7854 437.232 42.9988C437.072 43.2054 436.949 43.4554 436.862 43.7488C436.775 44.0354 436.732 44.3588 436.732 44.7188V45.7588C436.732 46.4788 436.899 47.0421 437.232 47.4488C437.565 47.8554 438.035 48.0588 438.642 48.0588C439.089 48.0588 439.462 47.9454 439.762 47.7188C440.062 47.4854 440.282 47.1788 440.422 46.7988L441.092 47.2188C440.872 47.7121 440.555 48.1021 440.142 48.3888C439.729 48.6688 439.229 48.8088 438.642 48.8088ZM444.263 48.8088C443.916 48.8088 443.6 48.7454 443.313 48.6188C443.026 48.4921 442.78 48.3121 442.573 48.0788C442.373 47.8388 442.216 47.5554 442.103 47.2288C441.99 46.8954 441.933 46.5221 441.933 46.1088C441.933 45.7021 441.99 45.3321 442.103 44.9988C442.216 44.6654 442.373 44.3821 442.573 44.1488C442.78 43.9088 443.026 43.7254 443.313 43.5988C443.6 43.4721 443.916 43.4088 444.263 43.4088C444.61 43.4088 444.923 43.4721 445.203 43.5988C445.49 43.7254 445.736 43.9088 445.943 44.1488C446.15 44.3821 446.31 44.6654 446.423 44.9988C446.536 45.3321 446.593 45.7021 446.593 46.1088C446.593 46.5221 446.536 46.8954 446.423 47.2288C446.31 47.5554 446.15 47.8388 445.943 48.0788C445.736 48.3121 445.49 48.4921 445.203 48.6188C444.923 48.7454 444.61 48.8088 444.263 48.8088ZM444.263 48.0988C444.696 48.0988 445.05 47.9654 445.323 47.6988C445.596 47.4321 445.733 47.0254 445.733 46.4788V45.7388C445.733 45.1921 445.596 44.7854 445.323 44.5188C445.05 44.2521 444.696 44.1188 444.263 44.1188C443.83 44.1188 443.476 44.2521 443.203 44.5188C442.93 44.7854 442.793 45.1921 442.793 45.7388V46.4788C442.793 47.0254 442.93 47.4321 443.203 47.6988C443.476 47.9654 443.83 48.0988 444.263 48.0988ZM447.909 48.6888V43.5288H448.709V44.3688H448.749C448.875 44.0754 449.052 43.8421 449.279 43.6688C449.512 43.4954 449.822 43.4088 450.209 43.4088C450.742 43.4088 451.162 43.5821 451.469 43.9288C451.782 44.2688 451.939 44.7521 451.939 45.3788V48.6888H451.139V45.5188C451.139 44.5921 450.749 44.1288 449.969 44.1288C449.809 44.1288 449.652 44.1488 449.499 44.1888C449.352 44.2288 449.219 44.2888 449.099 44.3688C448.979 44.4488 448.882 44.5521 448.809 44.6788C448.742 44.7988 448.709 44.9421 448.709 45.1088V48.6888H447.909ZM454.732 48.6888C454.452 48.6888 454.239 48.6121 454.092 48.4588C453.952 48.2988 453.882 48.0921 453.882 47.8388V44.2288H453.032V43.5288H453.512C453.686 43.5288 453.802 43.4954 453.862 43.4288C453.929 43.3554 453.962 43.2321 453.962 43.0588V42.0988H454.682V43.5288H455.812V44.2288H454.682V47.9888H455.732V48.6888H454.732ZM460.848 48.6888C460.548 48.6888 460.331 48.6088 460.198 48.4488C460.071 48.2888 459.991 48.0888 459.958 47.8488H459.908C459.795 48.1688 459.608 48.4088 459.348 48.5688C459.088 48.7288 458.778 48.8088 458.418 48.8088C457.871 48.8088 457.445 48.6688 457.138 48.3888C456.838 48.1088 456.688 47.7288 456.688 47.2488C456.688 46.7621 456.865 46.3888 457.218 46.1288C457.578 45.8688 458.135 45.7388 458.888 45.7388H459.908V45.2288C459.908 44.8621 459.808 44.5821 459.608 44.3888C459.408 44.1954 459.101 44.0988 458.688 44.0988C458.375 44.0988 458.111 44.1688 457.898 44.3088C457.691 44.4488 457.518 44.6354 457.378 44.8688L456.898 44.4188C457.038 44.1388 457.261 43.9021 457.568 43.7088C457.875 43.5088 458.261 43.4088 458.728 43.4088C459.355 43.4088 459.841 43.5621 460.188 43.8688C460.535 44.1754 460.708 44.6021 460.708 45.1488V47.9888H461.298V48.6888H460.848ZM458.548 48.1288C458.748 48.1288 458.931 48.1054 459.098 48.0588C459.265 48.0121 459.408 47.9454 459.528 47.8588C459.648 47.7721 459.741 47.6721 459.808 47.5588C459.875 47.4454 459.908 47.3221 459.908 47.1888V46.3388H458.848C458.388 46.3388 458.051 46.4054 457.838 46.5388C457.631 46.6721 457.528 46.8654 457.528 47.1188V47.3288C457.528 47.5821 457.618 47.7788 457.798 47.9188C457.985 48.0588 458.235 48.1288 458.548 48.1288ZM464.36 48.8088C464 48.8088 463.677 48.7454 463.39 48.6188C463.103 48.4921 462.86 48.3121 462.66 48.0788C462.467 47.8454 462.317 47.5621 462.21 47.2288C462.11 46.8954 462.06 46.5221 462.06 46.1088C462.06 45.6954 462.11 45.3221 462.21 44.9888C462.317 44.6554 462.467 44.3721 462.66 44.1388C462.86 43.9054 463.103 43.7254 463.39 43.5988C463.677 43.4721 464 43.4088 464.36 43.4088C464.873 43.4088 465.283 43.5221 465.59 43.7488C465.903 43.9688 466.137 44.2588 466.29 44.6188L465.62 44.9588C465.527 44.6921 465.373 44.4854 465.16 44.3388C464.947 44.1921 464.68 44.1188 464.36 44.1188C464.12 44.1188 463.91 44.1588 463.73 44.2388C463.55 44.3121 463.4 44.4188 463.28 44.5588C463.16 44.6921 463.07 44.8554 463.01 45.0488C462.95 45.2354 462.92 45.4421 462.92 45.6688V46.5488C462.92 47.0021 463.04 47.3754 463.28 47.6688C463.527 47.9554 463.887 48.0988 464.36 48.0988C465.007 48.0988 465.473 47.7988 465.76 47.1988L466.34 47.5888C466.173 47.9621 465.923 48.2588 465.59 48.4788C465.263 48.6988 464.853 48.8088 464.36 48.8088ZM468.609 48.6888C468.329 48.6888 468.116 48.6121 467.969 48.4588C467.829 48.2988 467.759 48.0921 467.759 47.8388V44.2288H466.909V43.5288H467.389C467.562 43.5288 467.679 43.4954 467.739 43.4288C467.806 43.3554 467.839 43.2321 467.839 43.0588V42.0988H468.559V43.5288H469.689V44.2288H468.559V47.9888H469.609V48.6888H468.609ZM476.518 47.8488H476.478C476.425 47.9688 476.358 48.0888 476.278 48.2088C476.205 48.3221 476.112 48.4254 475.998 48.5188C475.885 48.6054 475.748 48.6754 475.588 48.7288C475.428 48.7821 475.242 48.8088 475.028 48.8088C474.495 48.8088 474.072 48.6388 473.758 48.2988C473.445 47.9521 473.288 47.4654 473.288 46.8388V43.5288H474.088V46.6988C474.088 47.6254 474.482 48.0888 475.268 48.0888C475.428 48.0888 475.582 48.0688 475.728 48.0288C475.882 47.9888 476.015 47.9288 476.128 47.8488C476.248 47.7688 476.342 47.6688 476.408 47.5488C476.482 47.4221 476.518 47.2721 476.518 47.0988V43.5288H477.318V48.6888H476.518V47.8488ZM480.572 48.8088C480.092 48.8088 479.689 48.7188 479.362 48.5388C479.042 48.3521 478.765 48.1054 478.532 47.7988L479.102 47.3388C479.302 47.5921 479.525 47.7888 479.772 47.9288C480.019 48.0621 480.305 48.1288 480.632 48.1288C480.972 48.1288 481.235 48.0554 481.422 47.9088C481.615 47.7621 481.712 47.5554 481.712 47.2888C481.712 47.0888 481.645 46.9188 481.512 46.7788C481.385 46.6321 481.152 46.5321 480.812 46.4788L480.402 46.4188C480.162 46.3854 479.942 46.3354 479.742 46.2688C479.542 46.1954 479.365 46.1021 479.212 45.9888C479.065 45.8688 478.949 45.7221 478.862 45.5488C478.782 45.3754 478.742 45.1688 478.742 44.9288C478.742 44.6754 478.789 44.4554 478.882 44.2688C478.975 44.0754 479.102 43.9154 479.262 43.7888C479.429 43.6621 479.625 43.5688 479.852 43.5088C480.079 43.4421 480.322 43.4088 480.582 43.4088C481.002 43.4088 481.352 43.4821 481.632 43.6288C481.919 43.7754 482.169 43.9788 482.382 44.2388L481.852 44.7188C481.739 44.5588 481.572 44.4154 481.352 44.2888C481.132 44.1554 480.855 44.0888 480.522 44.0888C480.189 44.0888 479.935 44.1621 479.762 44.3088C479.595 44.4488 479.512 44.6421 479.512 44.8888C479.512 45.1421 479.595 45.3254 479.762 45.4388C479.935 45.5521 480.182 45.6354 480.502 45.6888L480.902 45.7488C481.475 45.8354 481.882 46.0021 482.122 46.2488C482.362 46.4888 482.482 46.8054 482.482 47.1988C482.482 47.6988 482.312 48.0921 481.972 48.3788C481.632 48.6654 481.165 48.8088 480.572 48.8088Z" fill="#D9D9D9"/>
<path d="M369.903 48.6888L369.203 46.6288H366.383L365.683 48.6888H364.833L367.273 41.7088H368.343L370.783 48.6888H369.903ZM367.813 42.4888H367.763L366.583 45.8888H368.993L367.813 42.4888ZM371.859 41.2888H372.659V44.3688H372.699C372.832 44.0421 373.026 43.8021 373.279 43.6488C373.539 43.4888 373.849 43.4088 374.209 43.4088C374.529 43.4088 374.819 43.4721 375.079 43.5988C375.339 43.7254 375.559 43.9054 375.739 44.1388C375.926 44.3721 376.066 44.6554 376.159 44.9888C376.259 45.3221 376.309 45.6954 376.309 46.1088C376.309 46.5221 376.259 46.8954 376.159 47.2288C376.066 47.5621 375.926 47.8454 375.739 48.0788C375.559 48.3121 375.339 48.4921 375.079 48.6188C374.819 48.7454 374.529 48.8088 374.209 48.8088C373.509 48.8088 373.006 48.4888 372.699 47.8488H372.659V48.6888H371.859V41.2888ZM373.989 48.0888C374.442 48.0888 374.799 47.9488 375.059 47.6688C375.319 47.3821 375.449 47.0088 375.449 46.5488V45.6688C375.449 45.2088 375.319 44.8388 375.059 44.5588C374.799 44.2721 374.442 44.1288 373.989 44.1288C373.809 44.1288 373.636 44.1554 373.469 44.2088C373.309 44.2554 373.169 44.3221 373.049 44.4088C372.929 44.4954 372.832 44.6021 372.759 44.7288C372.692 44.8488 372.659 44.9788 372.659 45.1188V47.0388C372.659 47.2054 372.692 47.3554 372.759 47.4888C372.832 47.6154 372.929 47.7254 373.049 47.8188C373.169 47.9054 373.309 47.9721 373.469 48.0188C373.636 48.0654 373.809 48.0888 373.989 48.0888ZM379.61 48.8088C379.263 48.8088 378.946 48.7454 378.66 48.6188C378.373 48.4921 378.126 48.3121 377.92 48.0788C377.72 47.8388 377.563 47.5554 377.45 47.2288C377.336 46.8954 377.28 46.5221 377.28 46.1088C377.28 45.7021 377.336 45.3321 377.45 44.9988C377.563 44.6654 377.72 44.3821 377.92 44.1488C378.126 43.9088 378.373 43.7254 378.66 43.5988C378.946 43.4721 379.263 43.4088 379.61 43.4088C379.956 43.4088 380.27 43.4721 380.55 43.5988C380.836 43.7254 381.083 43.9088 381.29 44.1488C381.496 44.3821 381.656 44.6654 381.77 44.9988C381.883 45.3321 381.94 45.7021 381.94 46.1088C381.94 46.5221 381.883 46.8954 381.77 47.2288C381.656 47.5554 381.496 47.8388 381.29 48.0788C381.083 48.3121 380.836 48.4921 380.55 48.6188C380.27 48.7454 379.956 48.8088 379.61 48.8088ZM379.61 48.0988C380.043 48.0988 380.396 47.9654 380.67 47.6988C380.943 47.4321 381.08 47.0254 381.08 46.4788V45.7388C381.08 45.1921 380.943 44.7854 380.67 44.5188C380.396 44.2521 380.043 44.1188 379.61 44.1188C379.176 44.1188 378.823 44.2521 378.55 44.5188C378.276 44.7854 378.14 45.1921 378.14 45.7388V46.4788C378.14 47.0254 378.276 47.4321 378.55 47.6988C378.823 47.9654 379.176 48.0988 379.61 48.0988ZM386.436 47.8488H386.396C386.342 47.9688 386.276 48.0888 386.196 48.2088C386.122 48.3221 386.029 48.4254 385.916 48.5188C385.802 48.6054 385.666 48.6754 385.506 48.7288C385.346 48.7821 385.159 48.8088 384.946 48.8088C384.412 48.8088 383.989 48.6388 383.676 48.2988C383.362 47.9521 383.206 47.4654 383.206 46.8388V43.5288H384.006V46.6988C384.006 47.6254 384.399 48.0888 385.186 48.0888C385.346 48.0888 385.499 48.0688 385.646 48.0288C385.799 47.9888 385.932 47.9288 386.046 47.8488C386.166 47.7688 386.259 47.6688 386.326 47.5488C386.399 47.4221 386.436 47.2721 386.436 47.0988V43.5288H387.236V48.6888H386.436V47.8488ZM390.079 48.6888C389.799 48.6888 389.586 48.6121 389.439 48.4588C389.299 48.2988 389.229 48.0921 389.229 47.8388V44.2288H388.379V43.5288H388.859C389.032 43.5288 389.149 43.4954 389.209 43.4288C389.276 43.3554 389.309 43.2321 389.309 43.0588V42.0988H390.029V43.5288H391.159V44.2288H390.029V47.9888H391.079V48.6888H390.079ZM397.988 47.8488H397.948C397.895 47.9688 397.828 48.0888 397.748 48.2088C397.675 48.3221 397.582 48.4254 397.468 48.5188C397.355 48.6054 397.218 48.6754 397.058 48.7288C396.898 48.7821 396.712 48.8088 396.498 48.8088C395.965 48.8088 395.542 48.6388 395.228 48.2988C394.915 47.9521 394.758 47.4654 394.758 46.8388V43.5288H395.558V46.6988C395.558 47.6254 395.952 48.0888 396.738 48.0888C396.898 48.0888 397.052 48.0688 397.198 48.0288C397.352 47.9888 397.485 47.9288 397.598 47.8488C397.718 47.7688 397.812 47.6688 397.878 47.5488C397.952 47.4221 397.988 47.2721 397.988 47.0988V43.5288H398.788V48.6888H397.988V47.8488ZM402.042 48.8088C401.562 48.8088 401.159 48.7188 400.832 48.5388C400.512 48.3521 400.235 48.1054 400.002 47.7988L400.572 47.3388C400.772 47.5921 400.995 47.7888 401.242 47.9288C401.489 48.0621 401.775 48.1288 402.102 48.1288C402.442 48.1288 402.705 48.0554 402.892 47.9088C403.085 47.7621 403.182 47.5554 403.182 47.2888C403.182 47.0888 403.115 46.9188 402.982 46.7788C402.855 46.6321 402.622 46.5321 402.282 46.4788L401.872 46.4188C401.632 46.3854 401.412 46.3354 401.212 46.2688C401.012 46.1954 400.835 46.1021 400.682 45.9888C400.535 45.8688 400.419 45.7221 400.332 45.5488C400.252 45.3754 400.212 45.1688 400.212 44.9288C400.212 44.6754 400.259 44.4554 400.352 44.2688C400.445 44.0754 400.572 43.9154 400.732 43.7888C400.899 43.6621 401.095 43.5688 401.322 43.5088C401.549 43.4421 401.792 43.4088 402.052 43.4088C402.472 43.4088 402.822 43.4821 403.102 43.6288C403.389 43.7754 403.639 43.9788 403.852 44.2388L403.322 44.7188C403.209 44.5588 403.042 44.4154 402.822 44.2888C402.602 44.1554 402.325 44.0888 401.992 44.0888C401.659 44.0888 401.405 44.1621 401.232 44.3088C401.065 44.4488 400.982 44.6421 400.982 44.8888C400.982 45.1421 401.065 45.3254 401.232 45.4388C401.405 45.5521 401.652 45.6354 401.972 45.6888L402.372 45.7488C402.945 45.8354 403.352 46.0021 403.592 46.2488C403.832 46.4888 403.952 46.8054 403.952 47.1988C403.952 47.6988 403.782 48.0921 403.442 48.3788C403.102 48.6654 402.635 48.8088 402.042 48.8088Z" fill="#D9D9D9"/>
<path d="M281.009 42.4488V48.6888H280.169V42.4488H277.949V41.7088H283.229V42.4488H281.009ZM285.588 48.8088C285.235 48.8088 284.915 48.7454 284.628 48.6188C284.348 48.4921 284.105 48.3121 283.898 48.0788C283.698 47.8388 283.541 47.5554 283.428 47.2288C283.321 46.8954 283.268 46.5221 283.268 46.1088C283.268 45.7021 283.321 45.3321 283.428 44.9988C283.541 44.6654 283.698 44.3821 283.898 44.1488C284.105 43.9088 284.348 43.7254 284.628 43.5988C284.915 43.4721 285.235 43.4088 285.588 43.4088C285.935 43.4088 286.245 43.4721 286.518 43.5988C286.791 43.7254 287.025 43.9021 287.218 44.1288C287.411 44.3488 287.558 44.6121 287.658 44.9188C287.765 45.2254 287.818 45.5621 287.818 45.9288V46.3088H284.108V46.5488C284.108 46.7688 284.141 46.9754 284.208 47.1688C284.281 47.3554 284.381 47.5188 284.508 47.6588C284.641 47.7988 284.801 47.9088 284.988 47.9888C285.181 48.0688 285.398 48.1088 285.638 48.1088C285.965 48.1088 286.248 48.0321 286.488 47.8788C286.735 47.7254 286.925 47.5054 287.058 47.2188L287.628 47.6288C287.461 47.9821 287.201 48.2688 286.848 48.4888C286.495 48.7021 286.075 48.8088 285.588 48.8088ZM285.588 44.0788C285.368 44.0788 285.168 44.1188 284.988 44.1988C284.808 44.2721 284.651 44.3788 284.518 44.5188C284.391 44.6588 284.291 44.8254 284.218 45.0188C284.145 45.2054 284.108 45.4121 284.108 45.6388V45.7088H286.958V45.5988C286.958 45.1388 286.831 44.7721 286.578 44.4988C286.331 44.2188 286.001 44.0788 285.588 44.0788ZM291.056 48.8088C290.696 48.8088 290.373 48.7454 290.086 48.6188C289.799 48.4921 289.556 48.3121 289.356 48.0788C289.163 47.8454 289.013 47.5621 288.906 47.2288C288.806 46.8954 288.756 46.5221 288.756 46.1088C288.756 45.6954 288.806 45.3221 288.906 44.9888C289.013 44.6554 289.163 44.3721 289.356 44.1388C289.556 43.9054 289.799 43.7254 290.086 43.5988C290.373 43.4721 290.696 43.4088 291.056 43.4088C291.569 43.4088 291.979 43.5221 292.286 43.7488C292.599 43.9688 292.833 44.2588 292.986 44.6188L292.316 44.9588C292.223 44.6921 292.069 44.4854 291.856 44.3388C291.643 44.1921 291.376 44.1188 291.056 44.1188C290.816 44.1188 290.606 44.1588 290.426 44.2388C290.246 44.3121 290.096 44.4188 289.976 44.5588C289.856 44.6921 289.766 44.8554 289.706 45.0488C289.646 45.2354 289.616 45.4421 289.616 45.6688V46.5488C289.616 47.0021 289.736 47.3754 289.976 47.6688C290.223 47.9554 290.583 48.0988 291.056 48.0988C291.703 48.0988 292.169 47.7988 292.456 47.1988L293.036 47.5888C292.869 47.9621 292.619 48.2588 292.286 48.4788C291.959 48.6988 291.549 48.8088 291.056 48.8088ZM294.165 41.2888H294.965V44.3688H295.005C295.132 44.0754 295.309 43.8421 295.535 43.6688C295.769 43.4954 296.079 43.4088 296.465 43.4088C296.999 43.4088 297.419 43.5821 297.725 43.9288C298.039 44.2688 298.195 44.7521 298.195 45.3788V48.6888H297.395V45.5188C297.395 44.5921 297.005 44.1288 296.225 44.1288C296.065 44.1288 295.909 44.1488 295.755 44.1888C295.609 44.2288 295.475 44.2888 295.355 44.3688C295.235 44.4488 295.139 44.5521 295.065 44.6788C294.999 44.7988 294.965 44.9421 294.965 45.1088V48.6888H294.165V41.2888ZM299.849 48.6888V43.5288H300.649V44.3688H300.689C300.816 44.0754 300.992 43.8421 301.219 43.6688C301.452 43.4954 301.762 43.4088 302.149 43.4088C302.682 43.4088 303.102 43.5821 303.409 43.9288C303.722 44.2688 303.879 44.7521 303.879 45.3788V48.6888H303.079V45.5188C303.079 44.5921 302.689 44.1288 301.909 44.1288C301.749 44.1288 301.592 44.1488 301.439 44.1888C301.292 44.2288 301.159 44.2888 301.039 44.3688C300.919 44.4488 300.822 44.5521 300.749 44.6788C300.682 44.7988 300.649 44.9421 300.649 45.1088V48.6888H299.849ZM307.483 48.8088C307.136 48.8088 306.819 48.7454 306.533 48.6188C306.246 48.4921 305.999 48.3121 305.793 48.0788C305.593 47.8388 305.436 47.5554 305.323 47.2288C305.209 46.8954 305.153 46.5221 305.153 46.1088C305.153 45.7021 305.209 45.3321 305.323 44.9988C305.436 44.6654 305.593 44.3821 305.793 44.1488C305.999 43.9088 306.246 43.7254 306.533 43.5988C306.819 43.4721 307.136 43.4088 307.483 43.4088C307.829 43.4088 308.143 43.4721 308.423 43.5988C308.709 43.7254 308.956 43.9088 309.163 44.1488C309.369 44.3821 309.529 44.6654 309.643 44.9988C309.756 45.3321 309.813 45.7021 309.813 46.1088C309.813 46.5221 309.756 46.8954 309.643 47.2288C309.529 47.5554 309.369 47.8388 309.163 48.0788C308.956 48.3121 308.709 48.4921 308.423 48.6188C308.143 48.7454 307.829 48.8088 307.483 48.8088ZM307.483 48.0988C307.916 48.0988 308.269 47.9654 308.543 47.6988C308.816 47.4321 308.953 47.0254 308.953 46.4788V45.7388C308.953 45.1921 308.816 44.7854 308.543 44.5188C308.269 44.2521 307.916 44.1188 307.483 44.1188C307.049 44.1188 306.696 44.2521 306.423 44.5188C306.149 44.7854 306.013 45.1921 306.013 45.7388V46.4788C306.013 47.0254 306.149 47.4321 306.423 47.6988C306.696 47.9654 307.049 48.0988 307.483 48.0988ZM311.978 48.6888C311.698 48.6888 311.485 48.6121 311.338 48.4588C311.198 48.2988 311.128 48.0988 311.128 47.8588V41.2888H311.928V47.9888H312.688V48.6888H311.978ZM315.803 48.8088C315.456 48.8088 315.14 48.7454 314.853 48.6188C314.566 48.4921 314.32 48.3121 314.113 48.0788C313.913 47.8388 313.756 47.5554 313.643 47.2288C313.53 46.8954 313.473 46.5221 313.473 46.1088C313.473 45.7021 313.53 45.3321 313.643 44.9988C313.756 44.6654 313.913 44.3821 314.113 44.1488C314.32 43.9088 314.566 43.7254 314.853 43.5988C315.14 43.4721 315.456 43.4088 315.803 43.4088C316.15 43.4088 316.463 43.4721 316.743 43.5988C317.03 43.7254 317.276 43.9088 317.483 44.1488C317.69 44.3821 317.85 44.6654 317.963 44.9988C318.076 45.3321 318.133 45.7021 318.133 46.1088C318.133 46.5221 318.076 46.8954 317.963 47.2288C317.85 47.5554 317.69 47.8388 317.483 48.0788C317.276 48.3121 317.03 48.4921 316.743 48.6188C316.463 48.7454 316.15 48.8088 315.803 48.8088ZM315.803 48.0988C316.236 48.0988 316.59 47.9654 316.863 47.6988C317.136 47.4321 317.273 47.0254 317.273 46.4788V45.7388C317.273 45.1921 317.136 44.7854 316.863 44.5188C316.59 44.2521 316.236 44.1188 315.803 44.1188C315.37 44.1188 315.016 44.2521 314.743 44.5188C314.47 44.7854 314.333 45.1921 314.333 45.7388V46.4788C314.333 47.0254 314.47 47.4321 314.743 47.6988C315.016 47.9654 315.37 48.0988 315.803 48.0988ZM323.799 49.2588C323.799 49.7921 323.589 50.1821 323.169 50.4288C322.755 50.6821 322.132 50.8088 321.299 50.8088C320.492 50.8088 319.912 50.6988 319.559 50.4788C319.205 50.2588 319.029 49.9454 319.029 49.5388C319.029 49.2588 319.102 49.0388 319.249 48.8788C319.395 48.7254 319.595 48.6121 319.849 48.5388V48.4288C319.542 48.2821 319.389 48.0421 319.389 47.7088C319.389 47.4488 319.472 47.2521 319.639 47.1188C319.805 46.9788 320.019 46.8754 320.279 46.8088V46.7688C319.972 46.6221 319.732 46.4121 319.559 46.1388C319.392 45.8654 319.309 45.5488 319.309 45.1888C319.309 44.9288 319.355 44.6888 319.449 44.4688C319.542 44.2488 319.672 44.0621 319.839 43.9088C320.012 43.7488 320.215 43.6254 320.449 43.5388C320.689 43.4521 320.955 43.4088 321.249 43.4088C321.615 43.4088 321.942 43.4754 322.229 43.6088V43.5188C322.229 43.3188 322.275 43.1554 322.369 43.0288C322.462 42.8954 322.615 42.8288 322.829 42.8288H323.599V43.5288H322.619V43.8588C322.805 44.0188 322.949 44.2121 323.049 44.4388C323.155 44.6588 323.209 44.9088 323.209 45.1888C323.209 45.4488 323.162 45.6888 323.069 45.9088C322.975 46.1288 322.842 46.3188 322.669 46.4788C322.502 46.6321 322.299 46.7521 322.059 46.8388C321.819 46.9254 321.552 46.9688 321.259 46.9688C321.092 46.9688 320.925 46.9521 320.759 46.9188C320.585 46.9654 320.429 47.0354 320.289 47.1288C320.149 47.2154 320.079 47.3388 320.079 47.4988C320.079 47.6521 320.152 47.7554 320.299 47.8088C320.445 47.8621 320.635 47.8888 320.869 47.8888H321.969C322.609 47.8888 323.072 48.0121 323.359 48.2588C323.652 48.4988 323.799 48.8321 323.799 49.2588ZM323.049 49.3188C323.049 49.1121 322.969 48.9454 322.809 48.8188C322.655 48.6988 322.379 48.6388 321.979 48.6388H320.259C319.939 48.7854 319.779 49.0188 319.779 49.3388C319.779 49.5654 319.862 49.7588 320.029 49.9188C320.202 50.0788 320.492 50.1588 320.899 50.1588H321.639C322.085 50.1588 322.432 50.0888 322.679 49.9488C322.925 49.8088 323.049 49.5988 323.049 49.3188ZM321.259 46.3288C321.599 46.3288 321.869 46.2488 322.069 46.0888C322.269 45.9221 322.369 45.6688 322.369 45.3288V45.0488C322.369 44.7088 322.269 44.4588 322.069 44.2988C321.869 44.1321 321.599 44.0488 321.259 44.0488C320.919 44.0488 320.649 44.1321 320.449 44.2988C320.249 44.4588 320.149 44.7088 320.149 45.0488V45.3288C320.149 45.6688 320.249 45.9221 320.449 46.0888C320.649 46.2488 320.919 46.3288 321.259 46.3288ZM327.961 43.5288H328.751L326.441 49.8888C326.381 50.0421 326.321 50.1688 326.261 50.2688C326.201 50.3754 326.127 50.4588 326.041 50.5188C325.954 50.5788 325.844 50.6221 325.711 50.6488C325.584 50.6754 325.427 50.6888 325.241 50.6888H324.831V49.9888H325.641L326.031 48.8888L324.101 43.5288H324.901L326.141 47.0388L326.381 47.8788H326.431L326.711 47.0388L327.961 43.5288Z" fill="#D9D9D9"/>
<path d="M219.908 41.7088H222.248C222.681 41.7088 223.075 41.7821 223.428 41.9288C223.781 42.0754 224.081 42.2954 224.328 42.5888C224.581 42.8754 224.775 43.2388 224.908 43.6788C225.041 44.1121 225.108 44.6188 225.108 45.1988C225.108 45.7788 225.041 46.2888 224.908 46.7288C224.775 47.1621 224.581 47.5254 224.328 47.8188C224.081 48.1054 223.781 48.3221 223.428 48.4688C223.075 48.6154 222.681 48.6888 222.248 48.6888H219.908V41.7088ZM222.248 47.9488C222.535 47.9488 222.798 47.9021 223.038 47.8088C223.278 47.7088 223.485 47.5654 223.658 47.3788C223.831 47.1921 223.965 46.9654 224.058 46.6988C224.158 46.4254 224.208 46.1154 224.208 45.7688V44.6288C224.208 44.2821 224.158 43.9754 224.058 43.7088C223.965 43.4354 223.831 43.2054 223.658 43.0188C223.485 42.8321 223.278 42.6921 223.038 42.5988C222.798 42.4988 222.535 42.4488 222.248 42.4488H220.748V47.9488H222.248ZM228.477 48.8088C228.124 48.8088 227.804 48.7454 227.517 48.6188C227.237 48.4921 226.994 48.3121 226.787 48.0788C226.587 47.8388 226.43 47.5554 226.317 47.2288C226.21 46.8954 226.157 46.5221 226.157 46.1088C226.157 45.7021 226.21 45.3321 226.317 44.9988C226.43 44.6654 226.587 44.3821 226.787 44.1488C226.994 43.9088 227.237 43.7254 227.517 43.5988C227.804 43.4721 228.124 43.4088 228.477 43.4088C228.824 43.4088 229.134 43.4721 229.407 43.5988C229.68 43.7254 229.914 43.9021 230.107 44.1288C230.3 44.3488 230.447 44.6121 230.547 44.9188C230.654 45.2254 230.707 45.5621 230.707 45.9288V46.3088H226.997V46.5488C226.997 46.7688 227.03 46.9754 227.097 47.1688C227.17 47.3554 227.27 47.5188 227.397 47.6588C227.53 47.7988 227.69 47.9088 227.877 47.9888C228.07 48.0688 228.287 48.1088 228.527 48.1088C228.854 48.1088 229.137 48.0321 229.377 47.8788C229.624 47.7254 229.814 47.5054 229.947 47.2188L230.517 47.6288C230.35 47.9821 230.09 48.2688 229.737 48.4888C229.384 48.7021 228.964 48.8088 228.477 48.8088ZM228.477 44.0788C228.257 44.0788 228.057 44.1188 227.877 44.1988C227.697 44.2721 227.54 44.3788 227.407 44.5188C227.28 44.6588 227.18 44.8254 227.107 45.0188C227.034 45.2054 226.997 45.4121 226.997 45.6388V45.7088H229.847V45.5988C229.847 45.1388 229.72 44.7721 229.467 44.4988C229.22 44.2188 228.89 44.0788 228.477 44.0788ZM232.025 48.6888V43.5288H232.825V44.3688H232.865C232.925 44.2354 232.992 44.1121 233.065 43.9988C233.145 43.8788 233.239 43.7754 233.345 43.6888C233.459 43.6021 233.589 43.5354 233.735 43.4888C233.882 43.4354 234.055 43.4088 234.255 43.4088C234.595 43.4088 234.909 43.4921 235.195 43.6588C235.482 43.8188 235.695 44.0854 235.835 44.4588H235.855C235.949 44.1788 236.122 43.9354 236.375 43.7288C236.635 43.5154 236.985 43.4088 237.425 43.4088C237.952 43.4088 238.362 43.5821 238.655 43.9288C238.955 44.2688 239.105 44.7521 239.105 45.3788V48.6888H238.305V45.5188C238.305 45.0588 238.215 44.7121 238.035 44.4788C237.855 44.2454 237.569 44.1288 237.175 44.1288C237.015 44.1288 236.862 44.1488 236.715 44.1888C236.575 44.2288 236.449 44.2888 236.335 44.3688C236.222 44.4488 236.132 44.5521 236.065 44.6788C235.999 44.7988 235.965 44.9421 235.965 45.1088V48.6888H235.165V45.5188C235.165 45.0588 235.075 44.7121 234.895 44.4788C234.715 44.2454 234.435 44.1288 234.055 44.1288C233.895 44.1288 233.742 44.1488 233.595 44.1888C233.449 44.2288 233.319 44.2888 233.205 44.3688C233.092 44.4488 232.999 44.5521 232.925 44.6788C232.859 44.7988 232.825 44.9421 232.825 45.1088V48.6888H232.025ZM242.706 48.8088C242.359 48.8088 242.042 48.7454 241.756 48.6188C241.469 48.4921 241.222 48.3121 241.016 48.0788C240.816 47.8388 240.659 47.5554 240.546 47.2288C240.432 46.8954 240.376 46.5221 240.376 46.1088C240.376 45.7021 240.432 45.3321 240.546 44.9988C240.659 44.6654 240.816 44.3821 241.016 44.1488C241.222 43.9088 241.469 43.7254 241.756 43.5988C242.042 43.4721 242.359 43.4088 242.706 43.4088C243.052 43.4088 243.366 43.4721 243.646 43.5988C243.932 43.7254 244.179 43.9088 244.386 44.1488C244.592 44.3821 244.752 44.6654 244.866 44.9988C244.979 45.3321 245.036 45.7021 245.036 46.1088C245.036 46.5221 244.979 46.8954 244.866 47.2288C244.752 47.5554 244.592 47.8388 244.386 48.0788C244.179 48.3121 243.932 48.4921 243.646 48.6188C243.366 48.7454 243.052 48.8088 242.706 48.8088ZM242.706 48.0988C243.139 48.0988 243.492 47.9654 243.766 47.6988C244.039 47.4321 244.176 47.0254 244.176 46.4788V45.7388C244.176 45.1921 244.039 44.7854 243.766 44.5188C243.492 44.2521 243.139 44.1188 242.706 44.1188C242.272 44.1188 241.919 44.2521 241.646 44.5188C241.372 44.7854 241.236 45.1921 241.236 45.7388V46.4788C241.236 47.0254 241.372 47.4321 241.646 47.6988C241.919 47.9654 242.272 48.0988 242.706 48.0988ZM247.901 48.8088C247.421 48.8088 247.018 48.7188 246.691 48.5388C246.371 48.3521 246.095 48.1054 245.861 47.7988L246.431 47.3388C246.631 47.5921 246.855 47.7888 247.101 47.9288C247.348 48.0621 247.635 48.1288 247.961 48.1288C248.301 48.1288 248.565 48.0554 248.751 47.9088C248.945 47.7621 249.041 47.5554 249.041 47.2888C249.041 47.0888 248.975 46.9188 248.841 46.7788C248.715 46.6321 248.481 46.5321 248.141 46.4788L247.731 46.4188C247.491 46.3854 247.271 46.3354 247.071 46.2688C246.871 46.1954 246.695 46.1021 246.541 45.9888C246.395 45.8688 246.278 45.7221 246.191 45.5488C246.111 45.3754 246.071 45.1688 246.071 44.9288C246.071 44.6754 246.118 44.4554 246.211 44.2688C246.305 44.0754 246.431 43.9154 246.591 43.7888C246.758 43.6621 246.955 43.5688 247.181 43.5088C247.408 43.4421 247.651 43.4088 247.911 43.4088C248.331 43.4088 248.681 43.4821 248.961 43.6288C249.248 43.7754 249.498 43.9788 249.711 44.2388L249.181 44.7188C249.068 44.5588 248.901 44.4154 248.681 44.2888C248.461 44.1554 248.185 44.0888 247.851 44.0888C247.518 44.0888 247.265 44.1621 247.091 44.3088C246.925 44.4488 246.841 44.6421 246.841 44.8888C246.841 45.1421 246.925 45.3254 247.091 45.4388C247.265 45.5521 247.511 45.6354 247.831 45.6888L248.231 45.7488C248.805 45.8354 249.211 46.0021 249.451 46.2488C249.691 46.4888 249.811 46.8054 249.811 47.1988C249.811 47.6988 249.641 48.0921 249.301 48.3788C248.961 48.6654 248.495 48.8088 247.901 48.8088Z" fill="#D9D9D9"/>
</g>
<defs>
<filter id="filter0_d_1427_973" x="398.827" y="-44.2705" width="126.562" height="126.562" filterUnits="userSpaceOnUse" color-interpolation-filters="sRGB">
<feFlood flood-opacity="0" result="BackgroundImageFix"/>
<feColorMatrix in="SourceAlpha" type="matrix" values="0 0 0 0 0 0 0 0 0 0 0 0 0 0 0 0 0 0 127 0" result="hardAlpha"/>
<feOffset dy="4"/>
<feGaussianBlur stdDeviation="25"/>
<feComposite in2="hardAlpha" operator="out"/>
<feColorMatrix type="matrix" values="0 0 0 0 0 0 0 0 0 0 0 0 0 0 0 0 0 0 0.15 0"/>
<feBlend mode="normal" in2="BackgroundImageFix" result="effect1_dropShadow_1427_973"/>
<feBlend mode="normal" in="SourceGraphic" in2="effect1_dropShadow_1427_973" result="shape"/>
</filter>
<clipPath id="clip0_1427_973">
<rect width="510" height="95" fill="white" transform="translate(0 0.474396)"/>
</clipPath>
</defs>
</svg>
